<?xml version="1.0" encoding="UTF-8" standalone="no"?><!DOCTYPE svg PUBLIC "-//W3C//DTD SVG 1.1//EN" "http://www.w3.org/Graphics/SVG/1.1/DTD/svg11.dtd"><svg width="100%" height="100%" viewBox="0 0 480 480" version="1.1" xmlns="http://www.w3.org/2000/svg" xmlns:xlink="http://www.w3.org/1999/xlink" xml:space="preserve" xmlns:serif="http://www.serif.com/" style="fill-rule:evenodd;clip-rule:evenodd;stroke-linecap:round;stroke-linejoin:round;stroke-miterlimit:1.5;"><path d="M206.946,291.064c0,0 -21.111,37.627 -20.997,42.33c0,0 14.493,-16.404 24.649,-32.35c0,0 3.766,7.227 1.94,20.763c0,0 -26.133,27.532 -34.235,28.449c0,0 -6.104,-7.808 26.475,-63.323l2.168,4.13Zm41.251,-71.472l-2.338,-4.324l7.157,-11.747c15.66,2.276 17.967,-6.167 17.967,-6.167c3.213,-18.501 -29.287,-11.6 -29.287,-11.6c-3.579,1.101 -3.067,-1.982 -3.067,-1.982l5.303,-9.912c19.544,-5.727 38.124,4.919 38.124,4.919c17.455,-12.848 20.975,-23.084 20.975,-23.084c-2.655,-6.09 4.487,-9.247 4.487,-9.247l0.075,-11.916l6.507,-8.796l11.48,-3.947l11.667,4.586l6.394,9.472l-0.112,11.54l-6.993,9.585l-10.179,3.377c-0.98,7.586 -7.2,7.001 -7.2,7.001c-10.864,14.775 -13.512,28.174 -13.512,28.174c18.259,17.988 16.499,35.044 16.499,35.044l-6.918,7.424c-2.898,2.537 -3.132,-1.31 -3.132,-1.31c0.888,-13.621 -9.255,-23.97 -9.255,-23.97c-6.03,-7.142 -15.472,-1.363 -17.061,4.981c-1.589,6.343 2.664,10.572 3.786,11.324c1.122,0.752 -0.655,2.913 -0.655,2.913l-12.807,14.989c-11.545,2.772 -18.416,-2.866 -18.416,-2.866c0.981,-1.081 15.939,-20.092 15.939,-20.092l-0.795,-4.135c0,0 -1.215,-1.974 -2.431,-2.161c-1.215,-0.188 -7.058,0.799 -7.058,0.799l-11.966,17.197l-0.982,-4.041l10.143,-15.177l-6.544,-6.296l-5.796,9.445Zm9.242,-11.932l7.068,6.992l6.095,-0.602l1.645,-10.826c0,0 -4.487,5.826 -14.808,4.435Zm47.557,-50.068l12.115,8.383c0.673,-3.346 3.926,-2.18 3.926,-2.18l1.608,-2.556l-15.481,-10.525l-1.571,2.594c2.319,2.894 -0.598,4.285 -0.598,4.285Zm12.055,-13.288l8.346,6.409l8.646,-6.589l-3.081,-10.645l-10.71,0.301l-3.201,10.525Zm-6.372,-0.03l3.62,-1.173l3.461,-10.134l-2.744,-3.157l-4.756,6.856l0.419,7.608Zm26.594,-0.842l2.243,0.842l0.987,-7.157l-4.487,-7.037l-1.975,2.045l3.231,11.307Zm-53.614,58.619c-1.416,-11.628 -8.173,-10.57 -8.173,-10.57c4.261,4.06 3.579,6.359 3.579,6.359c-2.372,-1.053 -3.576,-0.641 -3.576,-0.641c2.3,4.335 0.616,15.377 0.616,15.377c0,0 9.872,-5.112 14.696,-4.323c0,0 0,-1.278 -1.757,-3.195c0,0 1.944,-1.391 7.142,1.353c0,0 -1.122,-6.766 -12.527,-4.36Zm43.951,-45.748l6.432,-1.504l5.474,-7.007l-3.111,-1.954l-9.124,6.796l0.329,3.669Zm3.081,-25.351l2.243,-2.346l-8.017,-3.127l-7.158,2.947l2.103,2.376l10.829,0.15Zm-87.079,49.559c4.08,0.853 11.7,-4.65 11.7,-4.65c0,0 2.954,7.142 15.668,6.766c12.714,-0.376 14.856,16.803 14.856,16.803c1.58,-0.301 15.919,-3.534 18.051,4.387c2.131,7.92 12.826,16.54 12.826,16.54c0.86,1.24 0.066,12.394 0.066,12.394l3.467,-3.791c-2.168,-21.911 -22.31,-37.504 -21.468,-38.177c0.841,-0.674 4.581,2.255 4.581,2.255l0.935,-2.772l-16.921,-12.452l-2.15,2.584c2.431,1.128 2.758,3.148 2.758,3.148c-24.633,-14.707 -42.956,-7.753 -42.956,-7.753l-1.411,4.717Zm67.506,-32.828l13.162,9.527l0.12,-4.162l-8.807,-6.64l-4.475,1.275Zm-95.734,180.618c0,0 18.458,-11.203 -15.323,-54.613c0,0 -34.984,-24.137 -24.954,-46.262c10.03,-22.125 -4.462,-50.709 -20.439,-20.726c0,0 -3.012,7.25 -10.681,-5.873c0,0 -36.911,-75.227 30.988,-64.186c0,0 -31.239,21.077 11.554,52.626c0,0 14.407,11.379 8.273,29.398c0,0 -6.134,14.33 12.41,21.356c0,0 76.397,67.017 8.171,88.281Zm35.688,-29.787c0,0 6.776,-27.05 -35.483,-61.831c0,0 -19.614,-13.272 -4.814,-26.715c0,0 1.07,8.245 7.845,12.368c0,0 15.869,3.249 -5.349,-19.896c0,0 -77.028,-58.814 -13.908,-64.191c0,0 19.97,1.075 1.248,-11.292c0,0 -11.946,-10.755 6.597,-7.528c18.544,3.226 6.062,-6.274 7.311,-6.453c0,0 22.467,1.076 10.698,14.519c0,0 -5.706,4.25 7.845,8.04c0,0 41.724,18.309 -2.496,22.431c0,0 -49.034,-9.858 -22.288,29.038c0,0 4.235,7.618 18.722,12.547c0,0 18.96,4.033 16.724,24.646c0,0 -6.025,37.252 34.762,24.87c0,0 17.831,-11.651 17.608,6.049c0,0 -13.373,-6.274 -21.397,13.443c0,0 -17.162,2.913 -15.379,14.34c0,0 -3.789,15.773 -8.247,15.617Z" style="stroke:#000;stroke-width:1.25px;"/><g><path d="M37.087,292.415c-15.24,-0.847 -25.393,-15.953 -25.393,-15.953c0,0 -7.928,-9.318 -2.194,-19.977c5.734,-10.659 -1.881,-20.188 27.588,-21.953c29.469,1.765 21.854,11.294 27.588,21.953c5.734,10.659 -2.194,19.977 -2.194,19.977c0,0 -10.153,15.106 -25.393,15.953Zm-18.662,-37.104c0,0 2.928,-0.862 2.784,-4.19c-0.145,-3.328 -1.305,-4.918 -2.871,-5.352c-1.566,-0.434 -3.334,3.879 -2.9,5.352c0.435,1.472 0.174,4.392 2.987,4.19Zm22.574,-1.486c0.056,-0.093 4.918,-1.332 2.746,-2.48c-2.171,-1.147 -2.746,2.48 -2.746,2.48Zm-7.529,0c0,0 -0.575,-3.627 -2.746,-2.48c-2.171,1.147 2.691,2.387 2.746,2.48Zm22.574,1.486c2.813,0.202 2.552,-2.718 2.987,-4.19c0.435,-1.472 -1.334,-5.785 -2.9,-5.352c-1.566,0.434 -2.726,2.024 -2.871,5.352c-0.145,3.327 2.784,4.19 2.784,4.19Zm-18.809,32.695c3.258,-0.339 6.086,0.113 17.016,-7.567c10.93,-7.68 6.964,-13.874 6.964,-13.874c-2.726,3.152 -4.929,1.619 -8.873,-0.26c-3.943,-1.879 -7.104,0.549 -8.409,1.33c-1.305,0.781 -6.699,3.701 -6.699,3.701c0,0 -5.542,-2.92 -6.846,-3.701c-1.305,-0.781 -4.465,-3.209 -8.409,-1.33c-3.943,1.879 -6.147,3.412 -8.873,0.26c0,0 -3.966,6.194 6.964,13.874c10.93,7.68 13.905,7.228 17.163,7.567Z"/></g><g><path d="M259.608,433.121l1.678,-1.198c0.906,0.587 1.733,1.291 2.461,2.093l-0.873,1.882c0.645,0.824 1.167,1.74 1.549,2.718l2.045,0.175c0.322,1.04 0.509,2.118 0.558,3.206l-1.862,0.873c-0.029,1.051 -0.21,2.093 -0.538,3.091l1.455,1.466c-0.413,1.006 -0.953,1.954 -1.607,2.819l-1.981,-0.544c-0.689,0.787 -1.489,1.466 -2.373,2.018l0.185,2.071c-0.216,0.113 -0.435,0.22 -0.657,0.321l-3.45,-4.252c3.286,-0.754 5.742,-3.733 5.742,-7.289c0,-2.159 -0.906,-4.106 -2.353,-5.47l0.02,-3.98Z"/></g><g><path d="M215.106,433.121l0.02,3.98c-1.447,1.365 -2.353,3.311 -2.353,5.47c0,3.556 2.456,6.535 5.742,7.289l-3.45,4.252c-0.222,-0.1 -0.441,-0.207 -0.657,-0.321l0.185,-2.071c-0.884,-0.551 -1.684,-1.231 -2.373,-2.018l-1.981,0.544c-0.653,-0.866 -1.193,-1.813 -1.607,-2.819l1.455,-1.466c-0.328,-0.998 -0.509,-2.04 -0.538,-3.091l-1.862,-0.873c0.049,-1.089 0.236,-2.166 0.558,-3.206l2.045,-0.175c0.382,-0.978 0.904,-1.894 1.549,-2.718l-0.873,-1.882c0.728,-0.802 1.555,-1.506 2.462,-2.093l1.678,1.198Z"/></g><g><path d="M226.231,413.431l22.252,0l-3.895,19.973l-7.231,2.217l-7.233,-2.217l-3.893,-19.973Z"/></g><g><path d="M248.518,417.131l0.892,0l9.457,5.547l0,24.038l-12.239,7.766l-2.967,18.121l-12.609,0l-2.968,-18.121l-12.239,-7.766l0,-24.038l9.457,-5.547l0.892,0l3.318,17.023l7.843,2.404l7.842,-2.404l3.319,-17.023Zm-22.3,18.15c-3.223,0 -5.84,2.497 -5.84,5.573c0,3.076 2.617,5.573 5.84,5.573c3.223,0 5.84,-2.497 5.84,-5.573c0,-3.076 -2.617,-5.573 -5.84,-5.573Zm21.88,0c-3.223,0 -5.84,2.497 -5.84,5.573c0,3.076 2.617,5.573 5.84,5.573c3.223,0 5.84,-2.497 5.84,-5.573c0,-3.076 -2.617,-5.573 -5.84,-5.573Z"/></g><g><path d="M245.146,470.199l9.271,-8.505l1.853,2.033l-9.642,8.135l-1.482,-1.663Z"/></g><g><path d="M229.566,470.199l-1.482,1.663l-9.642,-8.135l1.853,-2.033l9.271,8.505Z"/></g><g><path d="M228.085,466.232l-6.675,-5.093l0,-8.69l5.748,3.513l0.927,10.27Z"/></g><g><path d="M246.628,466.232l0.928,-10.27l5.765,-3.546l-0.017,8.723l-6.676,5.093Z"/></g><g><path d="M415.935,97.046c20.332,0.126 15.208,16.445 15.208,16.445c2.164,-1.707 3.197,0.837 3.197,0.837c1.518,4.765 -2.504,8.289 -2.504,8.289c3.532,5.686 1.665,9.409 1.665,9.409c4.037,4.428 0.642,9.024 0.642,9.024c-0.833,-1.82 -1.35,-1.308 -1.35,-1.308c2.745,6.988 -2.542,9.563 -2.542,9.563c-0.144,-1.232 -0.624,-1.05 -0.624,-1.05c-1.309,5.885 -7.192,5.894 -7.192,5.894c0.165,-0.289 0.124,-1.216 0.124,-1.216c-2.79,3.586 -6.623,3.277 -6.623,3.277c0,0 -3.833,0.309 -6.623,-3.277c0,0 -0.041,0.927 0.124,1.216c0,0 -5.884,-0.009 -7.192,-5.894c0,0 -0.48,-0.183 -0.624,1.05c0,0 -5.287,-2.575 -2.542,-9.563c0,0 -0.517,-0.512 -1.35,1.308c0,0 -3.395,-4.597 0.642,-9.024c0,0 -1.867,-3.723 1.665,-9.409c0,0 -4.022,-3.523 -2.504,-8.289c0,0 1.033,-2.544 3.197,-0.837c0,0 -5.124,-16.319 15.208,-16.445Zm0,13.337c-1.15,0.198 -4.06,-0.094 -8.039,-0.319c-3.979,-0.225 -3.913,5.779 -3.913,5.779c-0.732,7.685 3.703,9.802 3.703,9.802c3.892,-4.122 8.249,-1.408 8.249,-1.408c0,0 4.356,-2.713 8.249,1.408c0,0 4.435,-2.117 3.703,-9.802c0,0 0.066,-6.004 -3.913,-5.779c-3.979,0.225 -7.294,0.319 -8.039,0.319Zm0,17.372c-2.15,-0.203 -4.126,1.925 -4.126,1.925c1.738,1.373 4.12,1.418 4.126,1.418c0.006,0 2.388,-0.045 4.126,-1.418c0,0 -1.976,-2.127 -4.126,-1.925Z"/></g><g><path d="M48.539,134.067c-0.235,-0.92 -0.246,-1.478 -0.246,-1.478c-5.918,-3.288 -5.622,-10.285 -5.622,-10.285c-0.254,-2.445 -3.483,-13.784 -3.483,-13.784c1.048,3.642 6.065,8.688 6.065,8.688c0.913,-4.249 3.365,-8.161 3.365,-8.161c6.138,-8.195 13.424,-5.706 13.424,-5.706l0.006,0.01l0.006,-0.01c0,0 7.287,-2.489 13.424,5.706c0,0 2.452,3.912 3.365,8.161c0,0 5.017,-5.046 6.065,-8.688c0,0 -3.23,11.339 -3.483,13.784c0,0 0.296,6.997 -5.622,10.285c0,0 -0.148,8.725 -13.749,14.036c-2.502,-0.977 -4.549,-2.07 -6.224,-3.202c-0.034,0.436 -0.34,1.276 -1.603,1.987c-1.693,0.955 -1.95,2.033 -1.95,2.033c0.541,-0.477 0.328,-0.398 1.525,-1.052c1.197,-0.654 1.578,-1.14 1.578,-1.14c1.489,1.741 -0.683,4.084 -1.427,4.243c-0.745,0.159 -1.554,1.543 -1.554,1.543c1.596,-1.37 2.748,-1.631 2.748,-1.631c1.099,2.691 -1.067,3.704 -1.067,3.704c-4.072,1.529 -4.131,-2.042 -4.131,-2.042c0.601,1.207 2.419,1.238 2.419,1.238c-0.54,-0.732 -1.302,-1.05 -1.302,-1.05c-2.923,-1.616 -1.652,-3.929 -1.652,-3.929c1.574,2.011 3.158,1.921 3.158,1.921c-1.407,-1.559 -1.928,-1.627 -1.928,-1.627c-2.815,-0.909 -1.656,-4.161 -1.656,-4.161c1.003,1.795 3.425,2.093 3.425,2.093c-0.823,-1.252 -1.662,-1.572 -1.662,-1.572c-4.242,-2.093 -2.293,-5.449 -2.293,-5.449c0.204,0.46 0.08,0.504 1.791,1.45c1.711,0.946 2.145,1.414 2.145,1.414c-0.692,-1.211 -2.382,-2.111 -2.382,-2.111c-2.467,-1.607 -1.96,-3.994 -1.474,-5.219Zm5.606,8.107c-0.211,-0.172 -0.415,-0.344 -0.611,-0.516c-0.881,0.547 -1.655,2.073 -1.655,2.073c0.612,-0.919 2.216,-1.512 2.216,-1.512l0.05,-0.045Zm7.91,2.86c0,0 3.652,-0.199 9.703,-6.394c4.058,-4.154 3.731,-13.724 2.833,-16.411c0,0 -6.243,-2.986 -8.444,-4.614c-2.201,-1.628 -3.582,-2.741 -4.092,-4.225l-0.006,-0.017l-0.006,0.017c-0.51,1.484 -1.891,2.597 -4.092,4.225c-2.201,1.628 -8.444,4.614 -8.444,4.614c-0.898,2.687 -1.225,12.257 2.833,16.411c6.051,6.195 9.715,6.394 9.715,6.394Zm-14.632,-14.087c0.216,-0.755 0.952,-3.647 0.151,-6.949c-0.801,-3.302 -5.562,-8.589 -5.562,-8.589c0.671,1.834 0.758,1.014 1.58,7.143c0.822,6.129 3.831,8.395 3.831,8.395Zm-0.534,-3.214c-2.704,-1.224 -1.17,-3.437 -1.17,-3.437c-0.173,-1.878 -1.867,-4.397 -1.867,-4.397c3.014,1.514 3.036,7.834 3.036,7.834Zm29.919,3.214c0,0 3.008,-2.266 3.831,-8.395c0.822,-6.129 0.909,-5.309 1.58,-7.143c0,0 -4.761,5.287 -5.562,8.589c-0.801,3.302 -0.065,6.194 0.151,6.949Zm0.399,-3.214c0,0 0.022,-6.32 3.036,-7.834c0,0 -1.694,2.519 -1.867,4.397c0,0 1.535,2.213 -1.17,3.437Zm-25.942,31.626c-3.28,-2.733 -0.294,-5.775 -0.294,-5.775c1.697,1.053 3.117,0.004 3.117,0.004c2.701,3.267 0.485,5.836 0.485,5.836c0.26,-1.243 -0.416,-2.262 -0.416,-2.262c0.277,3.591 -2.147,4.994 -2.147,4.994c0.623,-2.24 -0.848,-4.593 -0.848,-4.593c-0.119,0.928 0.104,1.796 0.104,1.796Z"/></g><g><path d="M394.888,388.114c1.474,-1.266 10.497,-9.052 12.003,-11.22c1.641,-2.362 2.862,-4.135 2.145,1.434c0,0 -0.441,2.036 -1.85,4.687c-1.409,2.652 -1.985,5.246 -1.953,6.518c0.032,1.272 0.16,4.918 -1.441,6.542c0,0 -1.057,1.691 -3.33,3.845c-2.273,2.155 -0.928,3.48 -3.97,6.464c0,0 -1.505,1.525 -3.33,0.497c0,0 -0.224,4.011 -3.586,7.06c-3.362,3.05 -3.57,7.014 -9.988,7.16c-6.789,0.154 -6.649,-4.11 -10.011,-7.16c-3.362,-3.05 -3.586,-7.06 -3.586,-7.06c-1.825,1.028 -3.33,-0.497 -3.33,-0.497c-3.042,-2.983 -1.697,-4.309 -3.97,-6.464c-2.273,-2.155 -3.33,-3.845 -3.33,-3.845c-1.601,-1.624 -1.473,-5.27 -1.441,-6.542c0.032,-1.272 -0.544,-3.866 -1.953,-6.518c-1.409,-2.652 -1.85,-4.687 -1.85,-4.687c-0.717,-5.569 0.504,-3.795 2.145,-1.434c1.476,2.125 10.178,9.651 11.908,11.138c0.23,-0.652 0.502,-1.286 0.813,-1.897c0.813,-2.351 2.425,-6.101 4.956,-8.166l-0.053,2.445c0.108,-0.079 0.218,-0.156 0.328,-0.232c0.853,-1.489 3.185,-5.244 5.36,-5.905c0,0 -0.082,2.841 0.225,3.011c0,0 1.947,-1.511 2.008,-7.403c0,0 1.783,0.224 5.287,7.403c0,0 0.164,-3.132 0.369,-3.259c0.205,-0.127 6.949,7.122 6.949,7.122c0.555,0.346 3.05,3.494 4.475,6.962Zm1.394,13.226c0,0 0.082,-2.312 2.602,-3.246c2.52,-0.933 4.303,-4.715 4.283,-7.791c-0.02,-3.076 2.377,-7.722 2.623,-8.804c0,0 -5.779,5.749 -6.947,7.17c-1.168,1.421 -4.406,6.004 -4.221,8.528c0.184,2.525 0.02,2.641 1.66,4.142Zm-16.706,17.435c0,0 2.195,0.577 4.577,-1.783c0,0 2.638,-3.023 5.2,-6.179c0,0 1.261,-1.214 1.491,-3.404c0.23,-2.189 1.586,-3.743 1.049,-10.319c-0.537,-6.576 -4.229,-9.275 -5.019,-9.103c0,0 -1.732,-0.113 -7.297,2.804c-5.565,-2.917 -7.309,-2.804 -7.309,-2.804c-0.79,-0.172 -4.483,2.528 -5.019,9.103c-0.537,6.576 0.82,8.129 1.049,10.319c0.229,2.189 1.491,3.404 1.491,3.404c2.561,3.156 5.2,6.179 5.2,6.179c2.382,2.36 4.588,1.783 4.588,1.783Zm-16.978,-17.435c1.639,-1.501 1.475,-1.618 1.66,-4.142c0.184,-2.524 -3.053,-7.107 -4.221,-8.528c-1.168,-1.421 -6.947,-7.17 -6.947,-7.17c0.246,1.082 2.643,5.728 2.623,8.804c-0.02,3.076 1.762,6.858 4.283,7.791c2.521,0.933 2.602,3.246 2.602,3.246Z"/></g><path d="M355.451,386.149c5.205,1.928 5.505,7.629 5.505,7.629c-2.429,-1.07 -0.315,2.145 -0.315,2.145c-3.328,-1.944 -0.962,-4.294 -0.962,-4.294c-0.789,-1.479 -1.515,-2.595 -1.515,-2.595c-1.326,1.305 -0.598,3.611 -0.598,3.611c-1.798,-2.554 -0.095,-4.483 -0.095,-4.483c-0.457,-0.613 -2.019,-2.013 -2.019,-2.013Zm47.931,0c0,0 -1.562,1.4 -2.019,2.013c0,0 1.704,1.928 -0.095,4.483c0,0 0.727,-2.306 -0.598,-3.611c0,0 -0.726,1.117 -1.515,2.595c0,0 2.366,2.35 -0.962,4.294c0,0 2.114,-3.215 -0.315,-2.145c0,0 0.3,-5.7 5.505,-7.629Z"/><g><path d="M374.084,411.004c-1.19,-0.999 -1.479,-2.087 -1.479,-2.087c0,0 0.45,0.673 1.547,1.352c0.015,-0.114 0.032,-0.23 0.052,-0.349c0,0 0.372,-1.331 0.945,-1.758c0,0 -0.068,1.327 0.529,2.842c1.021,0.373 2.331,0.648 3.981,0.656c1.514,0.007 2.729,-0.216 3.691,-0.537c0.649,-1.564 0.577,-2.961 0.577,-2.961c0.573,0.427 0.945,1.758 0.945,1.758c0.028,0.164 0.05,0.323 0.068,0.476c1.163,-0.705 1.609,-1.441 1.609,-1.441c0,0 -0.222,1.153 -1.552,2.168c-0.375,0.286 -0.837,0.561 -1.408,0.796c-0.951,0.392 -2.201,0.673 -3.842,0.71c-1.835,0.041 -3.212,-0.276 -4.241,-0.74c-0.578,-0.261 -1.045,-0.568 -1.422,-0.885Z"/></g><g><path d="M173.123,20.358c2.208,0.106 7.406,0.609 7.985,0.576c1.934,-0.11 3.818,-1.365 3.684,-1.302c10.28,-6.123 16.996,1.913 16.88,5.653c-0.07,2.23 -2.161,5.458 -2.238,5.643c-0.42,1.01 0.588,3.316 0.763,3.285c4.604,6.067 2.574,10.622 -0.607,13.829c-4.851,4.891 -11.663,8.39 -27.977,8.513c-14.308,0.108 -18.948,-3.186 -23.705,-7.513c-0.471,-0.429 -5.733,-4.731 -4.008,-10.696c0.609,-2.107 1.918,-3.831 2.147,-4.134c0.017,-0.165 1.582,-1.831 0.421,-3.999c-0.376,-0.703 -3.707,-4.728 -0.356,-8.85c2.158,-2.655 7.494,-6.405 15.34,-1.731c1.504,0.822 1.402,1.075 3.159,1.257c1.746,0.182 4.447,-0.338 8.511,-0.532Zm20.401,-0.471c-3.565,0 -6.46,2.94 -6.46,6.562c0,3.621 2.895,6.562 6.46,6.562c3.565,0 6.46,-2.94 6.46,-6.562c0,-3.621 -2.895,-6.562 -6.46,-6.562Zm0,1.836c2.568,0 4.652,2.117 4.652,4.726c0,2.608 -2.085,4.726 -4.652,4.726c-2.568,0 -4.652,-2.117 -4.652,-4.726c0,-2.608 2.085,-4.726 4.652,-4.726Zm-20.401,33.444c31.888,-2.761 27.132,-14.915 27.132,-14.915c-0.355,0.148 -1.968,1.494 -5.326,0.477c-4.841,-1.465 -9.708,-3.76 -20.371,-4.23c-0.478,-0.021 -0.956,-0.005 -1.434,0.008c1.064,-0.097 -6.19,0.094 -10.637,0.972c-3.016,0.596 -10.963,3.228 -12.694,3.587c-1.977,0.411 -1.946,-0.042 -3.801,-0.815c0,0 -3.973,12.935 27.132,14.915Zm5.301,-25.868c-0.332,0 -0.602,0.417 -0.602,0.931c0,0.514 0.27,0.931 0.602,0.931c0.332,0 0.602,-0.417 0.602,-0.931c0,-0.514 -0.27,-0.931 -0.602,-0.931Zm-25.465,-9.412c-3.565,0 -6.46,2.94 -6.46,6.562c0,3.621 2.895,6.562 6.46,6.562c3.565,0 6.46,-2.94 6.46,-6.562c0,-3.621 -2.895,-6.562 -6.46,-6.562Zm0,1.836c2.568,0 4.652,2.117 4.652,4.726c0,2.608 -2.085,4.726 -4.652,4.726c-2.568,0 -4.652,-2.117 -4.652,-4.726c0,-2.608 2.085,-4.726 4.652,-4.726Zm14.937,7.576c-0.332,0 -0.602,0.417 -0.602,0.931c0,0.514 0.27,0.931 0.602,0.931c0.332,0 0.602,-0.417 0.602,-0.931c0,-0.514 -0.27,-0.931 -0.602,-0.931Z" style="stroke:#000;stroke-width:0.15px;"/></g><g><path d="M432.583,277.354c-5.653,4.908 -5.052,5.977 -10.845,2.958c-5.793,-3.018 -3.929,-4.777 -3.468,-5.497c0.461,-0.72 2.751,-3.697 2.751,-3.697c-8.711,-0.586 -7.761,-13.497 -7.736,-18.519c0.025,-5.022 5.312,-1.649 8.945,0.4c3.633,2.049 7.718,5.997 7.718,5.997c0,0 0.028,0.045 0.078,0.13c0.702,-5.335 6.208,-9.494 12.886,-9.494c6.679,0 12.185,4.159 12.886,9.494c0.051,-0.085 0.078,-0.13 0.078,-0.13c0,0 4.084,-3.948 7.718,-5.997c3.633,-2.049 8.92,-5.422 8.945,-0.4c0.025,5.022 0.975,17.934 -7.736,18.519c0,0 2.29,2.977 2.751,3.697c0.461,0.72 2.325,2.479 -3.468,5.497c-5.793,3.018 -5.192,1.949 -10.845,-2.958c-0.031,-0.027 -0.062,-0.054 -0.092,-0.081c-4.987,8.499 -10.343,8.686 -10.343,8.686c-7.409,-1.903 -10.225,-8.604 -10.225,-8.604Zm10.33,7.285c0.229,-0.117 7.797,-3.084 10.068,-9.838c2.78,-8.268 -0.798,-14.062 -4.108,-14.433c-3.31,-0.371 -5.96,2.341 -5.96,2.341c0,0 -2.65,-2.712 -5.96,-2.341c-3.31,0.371 -6.888,6.165 -4.108,14.433c2.271,6.754 9.838,9.721 10.068,9.838Z"/></g><g><path d="M101.921,420.262l4.149,0.012l4.149,-0.012c0.379,-0.031 0.896,-0.201 1.783,-1.216l4.182,-4.537l2.333,2.105l-5.327,5.987c0,0 -0.695,1.268 -2.928,1.123l-4.17,0.063l-4.216,-0.063c-1.86,0.002 -2.928,-1.123 -2.928,-1.123l-5.327,-5.987l2.333,-2.105l4.182,4.537c0.887,1.015 1.404,1.186 1.783,1.216Zm-1.812,-12.777c-0.737,1.532 -5.197,6.638 -5.197,6.638c0.138,-0.402 -6.879,6.98 -12.691,6.066c-5.812,-0.914 -5.916,-7.345 -5.916,-7.345c4.196,5.043 7.395,4.093 12.313,-0.183c4.918,-4.276 6.346,-9.143 6.346,-9.143c-0.586,-0.06 -0.473,-0.311 -0.473,-0.311c0.09,-1.245 0.564,-1.664 2.829,-1.102c2.265,0.563 4.068,3.707 3.764,4.825c-0.305,1.118 -0.974,0.554 -0.974,0.554Zm11.731,0c0,0 -0.669,0.564 -0.974,-0.554c-0.305,-1.118 1.498,-4.263 3.764,-4.825c2.265,-0.563 2.739,-0.144 2.829,1.102c0,0 0.113,0.251 -0.473,0.311c0,0 1.428,4.867 6.346,9.143c4.918,4.276 8.117,5.226 12.313,0.183c0,0 -0.103,6.432 -5.916,7.345c-5.813,0.914 -12.829,-6.468 -12.691,-6.066c0,0 -4.46,-5.106 -5.197,-6.638Zm-5.843,-24.265c0,0 -4.184,-2.058 -6.138,-3.499c-1.955,-1.441 -5.126,-1.254 -7.273,3.517c0,0 0.125,4.21 -1.16,6.268c-1.285,2.058 -0.387,4.509 0.775,6.006c1.162,1.497 2.729,3.306 2.007,5.875c0,0 -0.599,-2.071 -1.708,-2.501l-0.229,7.896l-2.483,3.349l-0.018,-9.037c0,0 -2.75,-1.506 -4.16,-4.758c-1.41,-3.252 0.757,-3.472 -0.585,-9.282c-1.341,-5.81 -1.338,-5.851 -1.338,-5.851c0,0 -0.81,-2.173 1.444,-0.18c2.254,1.993 3.464,2.91 4.679,4.838c0,0 -0.143,-5.015 0.166,-7.098c0.31,-2.083 1.024,-11.965 16.02,-11.544c15.282,-0.398 15.799,9.461 16.109,11.544c0.309,2.083 0.166,7.098 0.166,7.098c1.215,-1.928 2.425,-2.845 4.679,-4.838c2.254,-1.993 1.444,0.18 1.444,0.18c0,0 0.003,0.04 -1.338,5.851c-1.341,5.81 0.825,6.03 -0.585,9.282c-1.41,3.252 -4.16,4.758 -4.16,4.758l-0.018,9.037l-2.483,-3.349l-0.229,-7.896c-1.109,0.43 -1.708,2.501 -1.708,2.501c-0.722,-2.569 0.845,-4.378 2.007,-5.875c1.162,-1.497 2.06,-3.948 0.775,-6.006c-1.285,-2.058 -1.16,-6.268 -1.16,-6.268c-2.147,-4.771 -5.318,-4.958 -7.273,-3.517c-1.955,1.441 -6.227,3.499 -6.227,3.499Z"/></g><g><path d="M289.431,33.927c-0.277,-11.037 2.965,-25.813 22.123,-26.531c19.001,0.712 22.347,15.252 22.13,26.258l0.01,-0.043c0,0 5.969,-1.196 3.28,8.515c-2.674,9.656 -4.221,7.374 -5.664,5.836c-1.915,4.744 -7.726,16.254 -19.755,18.605c-12.117,-2.368 -17.926,-14.03 -19.797,-18.708c-0.002,0.023 0.018,-0.012 0,0c-1.231,0.811 -2.987,3.978 -5.676,-5.732c-2.689,-9.711 3.349,-8.199 3.349,-8.199c0,0 -0.045,-0.204 0,0Zm22.123,30.301c14.034,-2.742 18.879,-19.022 18.879,-19.022c0,0 9.438,-34.41 -18.879,-35.471c-28.317,1.062 -18.879,35.471 -18.879,35.471c0,0 4.845,16.28 18.879,19.022Z"/></g></svg>