<?xml version="1.0" encoding="UTF-8" standalone="no"?>
<!DOCTYPE svg PUBLIC "-//W3C//DTD SVG 1.1//EN" "http://www.w3.org/Graphics/SVG/1.1/DTD/svg11.dtd">
<svg width="100%" height="100%" viewBox="0 0 1080 1080" version="1.1" xmlns="http://www.w3.org/2000/svg" xmlns:xlink="http://www.w3.org/1999/xlink" xml:space="preserve" xmlns:serif="http://www.serif.com/" style="fill-rule:evenodd;clip-rule:evenodd;stroke-linecap:round;stroke-linejoin:round;stroke-miterlimit:1.5;">
    <g transform="matrix(0.364477,0,0,0.357335,540,540)">
        <g transform="matrix(1,0,0,1,-1080,-1080)">
            <g transform="matrix(2,0,0,2,0,0)">
                <path d="M442.523,713.398C442.523,713.398 374.854,833.375 375.219,848.372C375.219,848.372 421.674,796.065 454.228,745.222C454.228,745.222 466.299,768.266 460.447,811.428C460.447,811.428 376.683,899.216 350.712,902.142C350.712,902.142 331.147,877.245 435.573,700.23L442.523,713.398ZM574.747,485.503L567.252,471.717L590.194,434.261C640.388,441.518 647.783,414.596 647.783,414.596C658.083,355.603 553.908,377.609 553.908,377.609C542.437,381.12 544.076,371.288 544.076,371.288L561.073,339.684C623.719,321.424 683.273,355.369 683.273,355.369C739.223,314.401 750.505,281.764 750.505,281.764C741.995,262.347 764.888,252.279 764.888,252.279L765.128,214.283L785.984,186.236L822.78,173.651L860.177,188.274L880.672,218.478L880.313,255.275L857.899,285.839L825.272,296.606C822.131,320.796 802.195,318.928 802.195,318.928C767.372,366.041 758.886,408.764 758.886,408.764C817.411,466.119 811.77,520.505 811.77,520.505L789.596,544.177C780.306,552.268 779.557,540 779.557,540C782.404,496.569 749.892,463.568 749.892,463.568C730.565,440.795 700.3,459.223 695.206,479.45C690.112,499.676 703.746,513.16 707.342,515.557C710.938,517.954 705.244,524.846 705.244,524.846L664.193,572.64C627.186,581.48 605.162,563.501 605.162,563.501C608.308,560.055 656.252,499.436 656.252,499.436L653.705,486.252C653.705,486.252 649.809,479.959 645.914,479.36C642.019,478.76 623.291,481.907 623.291,481.907L584.936,536.742L581.789,523.858L614.301,475.464L593.326,455.388L574.747,485.503ZM604.37,447.457L627.024,469.751L646.561,467.833L651.835,433.314C651.835,433.314 637.452,451.892 604.37,447.457ZM756.805,287.81L795.639,314.539C797.796,303.871 808.224,307.587 808.224,307.587L813.378,299.436L763.756,265.876L758.722,274.146C766.154,283.375 756.805,287.81 756.805,287.81ZM795.446,245.441L822.198,265.876L849.91,244.866L840.034,210.922L805.706,211.881L795.446,245.441ZM775.022,245.346L786.624,241.606L797.719,209.292L788.925,199.224L773.679,221.086L775.022,245.346ZM860.266,242.661L867.457,245.346L870.622,222.524L856.239,200.087L849.91,206.607L860.266,242.661ZM688.415,429.573C683.877,392.496 662.217,395.869 662.217,395.869C675.876,408.814 673.69,416.145 673.69,416.145C666.086,412.786 662.229,414.101 662.229,414.101C669.601,427.923 664.203,463.133 664.203,463.133C664.203,463.133 695.846,446.833 711.308,449.35C711.308,449.35 711.308,445.274 705.675,439.162C705.675,439.162 711.907,434.727 728.568,443.476C728.568,443.476 724.972,421.902 688.415,429.573ZM829.294,283.701L849.91,278.906L867.457,256.564L857.485,250.332L828.239,272.002L829.294,283.701ZM839.171,202.867L846.362,195.388L820.664,185.416L797.719,194.813L804.459,202.388L839.171,202.867ZM560.053,360.89C573.131,363.61 597.555,346.064 597.555,346.064C597.555,346.064 607.024,368.838 647.776,367.639C688.528,366.44 695.393,421.216 695.393,421.216C700.459,420.257 746.42,409.949 753.252,435.203C760.084,460.457 794.364,487.941 794.364,487.941C797.121,491.896 794.574,527.462 794.574,527.462L805.688,515.374C798.738,445.509 734.178,395.789 736.875,393.642C739.572,391.494 751.558,400.833 751.558,400.833L754.554,391.993L700.318,352.29L693.426,360.53C701.217,364.126 702.266,370.569 702.266,370.569C623.308,323.674 564.577,345.848 564.577,345.848L560.053,360.89ZM776.432,256.214L818.622,286.591L819.006,273.32L790.777,252.148L776.432,256.214ZM469.571,832.133C469.571,832.133 528.734,796.412 420.455,657.994C420.455,657.994 308.32,581.032 340.468,510.483C372.617,439.935 326.165,348.791 274.955,444.395C274.955,444.395 265.299,467.513 240.718,425.667C240.718,425.667 122.406,185.797 340.046,221.004C340.046,221.004 239.913,288.209 377.081,388.806C377.081,388.806 423.261,425.088 403.6,482.544C403.6,482.544 383.94,528.237 443.379,550.641C443.379,550.641 688.256,764.332 469.571,832.133ZM583.962,737.154C583.962,737.154 605.68,650.903 470.227,540C470.227,540 407.358,497.681 454.796,454.816C454.796,454.816 458.225,481.107 479.943,494.252C479.943,494.252 530.81,504.611 462.797,430.812C462.797,430.812 215.895,243.278 418.218,226.132C418.218,226.132 482.229,229.561 422.218,190.125C422.218,190.125 383.926,155.833 443.365,166.121C502.804,176.408 462.797,146.117 466.798,145.545C466.798,145.545 538.811,148.975 501.09,191.84C501.09,191.84 482.801,205.39 526.237,217.475C526.237,217.475 659.976,275.855 518.236,289C518.236,289 361.064,257.566 446.794,381.589C446.794,381.589 460.368,405.879 506.805,421.596C506.805,421.596 567.577,434.455 560.41,500.182C560.41,500.182 541.097,618.964 671.835,579.482C671.835,579.482 728.989,542.332 728.274,598.771C728.274,598.771 685.409,578.767 659.69,641.636C659.69,641.636 604.68,650.924 610.396,687.359C610.396,687.359 598.25,737.654 583.962,737.154Z" style="stroke:black;stroke-width:4px;"/>
            </g>
        </g>
    </g>
    <g id="Blade" transform="matrix(0.185059,0,0,0.182525,761.053599,781.455544)">
        <path d="M188.721,824.771C213.19,782.911 321.424,722.855 321.424,722.855C280.345,721.069 244.624,735.358 244.624,735.358C257.127,675.525 381.256,622.837 381.256,622.837C347.322,619.265 312.494,631.767 312.494,631.767C415.191,490.67 565.933,484.709 565.933,484.709C295.169,676.999 323.746,951.223 323.746,951.223L188.721,824.771ZM650.948,688.921C787.748,297.191 394.149,507.325 394.149,507.325C539.265,319.867 416.475,200.349 416.475,200.349C561.591,288.256 695.544,289.651 695.544,289.651C646.707,320.349 540,323.139 540,323.139C863.059,377.558 886.706,127.211 886.706,127.211C1044.379,515.932 650.948,688.921 650.948,688.921Z"/>
    </g>
    <g id="Grace" transform="matrix(0.237551,0,0,0.235495,1.758911,163.093699)">
        <path d="M394.138,517.768C191.271,434.244 208.162,231.938 208.162,231.938C263.973,299.809 376.89,353.816 376.89,353.816C471.194,404.111 512.344,487.556 512.344,487.556C508.915,474.982 518.059,460.122 518.059,460.122C472.337,380.678 451.761,374.853 451.761,374.853C506.057,373.6 530.633,451.549 530.633,451.549C534.062,444.69 551.78,449.834 551.78,449.834C579.785,364.104 630.652,374.853 630.652,374.853C586.644,395.318 563.782,462.408 563.782,462.408C571.784,474.41 572.355,489.842 572.355,489.842C600.36,456.693 601.503,404.683 708.38,355.531C815.258,306.379 872.411,231.938 872.411,231.938C887.842,428.976 691.806,517.768 691.806,517.768C755.246,514.262 781.537,502.413 781.537,502.413C757.532,556.137 683.233,562.995 683.233,562.995C650.084,545.278 627.223,540 627.223,540C834.118,686.751 751.817,848.726 751.817,848.726C724.955,787.18 647.798,714.415 647.798,714.415C584.929,663.548 564.678,595.536 564.678,595.536C545.818,750.422 540,736.705 540,736.705C526.181,719.559 516.669,598.965 516.669,598.965C505.239,650.403 440.084,709.843 440.084,709.843C353.782,791.572 330.349,848.137 330.349,848.137C260.05,646.368 456.087,540 456.087,540C449.8,539.349 394.138,565.227 394.138,565.227C331.046,558.369 284.055,492.071 301.15,502.358C318.245,512.646 394.138,517.768 394.138,517.768ZM471.839,504.13C461.552,471.424 403.827,397.382 403.827,397.382C402.684,428.244 421.544,461.394 421.544,461.394C416.972,457.964 294.092,390.966 294.092,390.966C376.965,523.434 471.839,504.13 471.839,504.13ZM609.579,504.13C609.579,504.13 704.454,523.434 787.327,390.966C787.327,390.966 664.447,457.964 659.874,461.394C659.874,461.394 678.735,428.244 677.592,397.382C677.592,397.382 619.867,471.424 609.579,504.13ZM344.387,758.02C344.387,758.02 356.961,739.159 420.973,674.004C420.973,674.004 483.842,609.993 485.556,573.986C485.556,573.986 382.108,598.248 344.387,758.02ZM736.46,758.02C698.739,598.248 595.291,573.986 595.291,573.986C597.005,609.993 659.874,674.004 659.874,674.004C723.886,739.159 736.46,758.02 736.46,758.02Z"/>
    </g>
    <g id="Codex" transform="matrix(0.185059,0,0,0.182525,-24.045617,492.466743)">
        <path d="M175.411,878.117C283.36,913.806 356.477,910.132 356.477,910.132C436.251,912.756 486.635,972.587 486.635,972.587L486.635,1020.346C421.031,957.366 318.689,965.239 318.689,965.239C202.702,951.593 174.886,931.65 174.886,931.65L175.411,878.117ZM828.299,878.117L828.824,931.65C828.824,931.65 801.008,951.593 685.021,965.239C685.021,965.239 582.679,957.366 517.075,1020.346L517.075,972.587C517.075,972.587 567.459,912.756 647.233,910.132C647.233,910.132 720.349,913.806 828.299,878.117ZM487.567,931.187C454.396,907.674 409.732,877.78 310.98,878.117C212.228,878.454 129.935,822.022 129.935,822.022L131.278,317.514C189.051,346.064 245.995,370.074 329.698,370.584C443.856,371.281 487.567,429.701 487.567,429.701L487.567,931.187ZM262.845,761.19L262.845,803.89L290.278,806.324L290.278,761.19L262.845,761.19ZM408.249,692.271L408.249,725.419L435.405,724.857L435.592,692.271L408.249,692.271ZM408.249,764.374L408.436,824.491L437.652,836.664L437.09,764.186L408.249,764.374ZM218.803,586.457L218.241,538.139L191.272,537.764L191.647,586.083L218.803,586.457ZM263.563,565.107L290.718,565.294L290.906,433.074L263.937,429.516L263.563,565.107ZM218.347,737.218L191.004,737.78L191.004,783.757L218.347,795.275L218.347,737.218ZM191.004,616.422L191.004,709.875L218.347,709.875L218.347,616.422L191.004,616.422ZM218.803,510.983L218.803,420.339L191.272,408.541L191.272,511.17L218.803,510.983ZM335.397,435.884L335.959,523.156L363.676,523.344L363.863,439.067L335.397,435.884ZM262.845,734.596L290.278,734.034L290.278,698.264L262.845,698.638L262.845,734.596ZM408.249,451.241L408.249,653.129L435.592,653.129L435.592,464.538L408.249,451.241ZM262.845,586.902L262.845,669.934L290.278,670.666L290.278,586.536L262.845,586.902ZM335.397,810.257L363.863,812.879L363.863,556.867L335.397,556.492L335.397,810.257ZM767.544,342.55C766.447,333.558 761.881,286.391 761.881,286.391C758.186,256.832 806.554,221.228 806.554,221.228C841.487,202.082 846.861,155.497 846.861,155.497C869.366,226.138 824.356,261.639 824.356,261.639C765.193,302.768 767.121,338.534 767.544,342.55ZM518.092,428.974L517.515,428.763C517.515,428.763 526.436,382.677 562.518,331.669C575.763,312.946 578.788,291.783 564.618,252.945C553.585,222.709 605.029,310.152 599.256,335.343C599.256,335.343 689.527,259.936 676.406,120.688C676.406,120.688 749.795,229.19 699.412,372.993C697.367,382.607 689.509,408.846 670.844,432.506C670.844,432.506 780.162,388.145 813.609,353.739C813.609,353.739 844.638,305.225 845.408,295.649C845.408,295.649 853.348,286.821 847.185,330.761C847.117,331.951 844.977,368.306 833.415,405.635C833.415,405.635 833.29,406.172 834.323,405.685C834.323,405.685 922.461,374.804 939.873,306.295C939.873,306.295 957.682,411.114 874.164,452.472L874.346,520.962C865.328,526.128 783.238,575.116 781.016,647.812C781.016,647.812 783.939,628.008 830.974,601.801C845.781,590.951 902.056,548.544 900.749,531.701C900.749,531.701 913.675,537.892 903.772,571.642C895.338,600.387 885.979,613.905 874.623,625.028L874.91,732.625C870.857,734.523 816.037,761.061 785.643,821.526C785.643,821.526 816.889,810.971 853.479,787.895L853.479,787.763C853.479,787.763 885.561,767.814 902.759,749.928C902.759,749.928 914.503,805.953 858.041,832.362C828.921,848.635 765.857,878.362 694.102,878.117C595.35,877.78 550.687,907.674 517.515,931.187L517.515,867.706C584.002,836.317 620.855,752.811 620.855,752.811C541.316,812.848 517.515,801.716 517.515,801.716L517.515,628.87C517.515,628.87 585.811,599.515 635.187,498.88C635.187,498.88 566.782,550.068 517.515,554.435L517.515,429.701C517.515,429.701 517.705,429.448 518.092,428.974ZM587.752,697.72C754.616,663.152 759.816,559.655 759.816,559.655C686.952,631.348 680.221,620.521 680.221,620.521C681.392,580.431 675.247,563.405 675.247,563.405C655.933,636.215 587.752,697.72 587.752,697.72Z"/>
    </g>
    <g id="Sage" transform="matrix(0.185059,0,0,0.182525,862.699024,184.617605)">
        <path d="M361.601,951.039C361.601,951.039 458.991,996.304 474.994,900.744C474.994,900.744 477.28,855.478 421.041,859.593C421.041,859.593 178.125,891.161 172.544,638.882C172.544,638.882 171.427,570.789 210.497,527.255C210.497,527.255 165.846,671.254 247.334,752.743C247.334,752.743 256.747,652.655 347.049,657.227C347.049,657.227 417.348,654.941 445.353,721.239C445.353,721.239 318.472,622.935 299.612,745.815C299.612,745.815 290.467,805.826 379.627,795.539C379.627,795.539 480.856,806.165 493.414,676.398C493.414,676.398 505.972,543.84 341.321,488.026C341.321,488.026 411.559,518.461 422.167,569.305C422.167,569.305 314.342,552.024 283.616,427.535C283.616,427.535 161.811,478.741 149.008,351.33C149.008,351.33 145.716,298.905 192.536,272.568C192.536,272.568 125.964,370.232 219.239,398.763C219.239,398.763 261.669,402.421 266.424,365.843C266.424,365.843 282.167,165.304 488.634,155.302C488.634,155.302 647.235,143.872 709.389,311.045C709.389,311.045 629.374,188.88 502.922,193.166C502.922,193.166 534.357,215.313 529.356,281.04C529.356,281.04 492.921,411.064 382.186,354.625C382.186,354.625 479.347,375.343 492.921,276.039C492.921,276.039 485.776,228.887 440.054,223.172C440.054,223.172 362.182,225.315 347.179,340.336C347.179,340.336 348.608,499.652 517.925,495.365C517.925,495.365 600.798,506.081 634.375,456.072C634.375,456.072 586.509,494.651 522.212,466.788C522.212,466.788 595.082,384.63 727.25,417.494C727.25,417.494 741.538,336.764 825.839,334.621C825.839,334.621 941.575,334.175 925.858,453.929C925.858,453.929 903.711,365.788 837.27,367.216C837.27,367.216 776.545,371.503 786.546,440.801C786.546,440.801 890.137,522.96 877.992,629.408C877.992,629.408 882.993,857.307 616.515,845.162C616.515,845.162 774.401,828.016 803.692,728.712C803.692,728.712 675.097,731.759 689.386,620.12C689.386,620.12 691.529,579.209 714.39,556.348C714.39,556.348 676.526,693.516 785.832,684.229C785.832,684.229 829.411,673.709 827.268,630.129C827.268,630.129 818.695,494.39 675.812,494.39C675.812,494.39 501.349,520.648 540,719.432C540,719.432 515.782,666.74 580.08,608.157C580.08,608.157 617.944,767.473 492.921,833.914C492.921,833.914 526.498,880.14 505.066,926.788C505.066,926.788 474.045,1021.516 361.601,951.039Z"/>
    </g>
    <g id="Arcana" transform="matrix(0.185059,0,0,0.182525,610.31031,-19.80099)">
        <path d="M561.943,596.899L693.682,692.345L685.68,854.089L607.952,695.203L647.959,696.346L561.943,596.899ZM498.333,499.671L366.595,404.225L372.881,217.333L452.325,401.367L413.46,380.221L498.333,499.671ZM445.426,813.959L533.442,619.638L591.167,783.668L530.138,1028.285L509.438,760.235L445.426,813.959ZM612.768,284.859L536.639,472.323L478.914,308.292L534,108.484L556.529,335.84L612.768,284.859ZM596.661,540L799.669,427.218L776.351,466.997L966.1,493.059L677.59,535.711L711.425,504.947L596.661,540ZM502.67,590.475L423.454,667.553L471.452,645.812L358.484,816.072L366.595,718.708L197.842,769.482L502.67,590.475ZM612.768,581.502L792.535,572.929L733.238,597.933L1003.288,685.092L718.236,647.943L612.768,581.502ZM468.642,525.637L286.878,524.522L346.838,501.153L74.16,402.962L363.207,451.574L468.642,525.637ZM80.055,590.475L354.391,564.196L333.542,590.475L477.66,554.685L260.751,664.054L287.819,622.355L80.055,590.475ZM555.524,515.586L621.365,410.826L627.51,439.503L707.397,265.976L703.007,370.736L859.854,318.064L555.524,515.586Z"/>
    </g>
    <g id="Valor" transform="matrix(0.185059,0,0,0.182525,435.32504,908.120596)">
        <path d="M401.285,446.141C309.361,264.105 222.657,171.349 222.657,171.349C315.042,188.977 406.841,199.696 498.054,203.5C491.094,237.511 471.412,293.176 471.412,293.176C395.33,282.777 377.041,272.483 377.041,272.483C397.89,288.704 452.392,374.044 452.392,374.044C485.622,345.785 511.928,254.233 524.211,204.402C555.175,205.245 586.071,205.29 616.9,204.536C629.197,254.397 655.485,345.81 688.686,374.044C688.686,374.044 743.188,288.704 764.037,272.483C764.037,272.483 745.748,282.777 669.666,293.176C669.666,293.176 650.062,237.732 643.065,203.703C734.913,200.102 826.158,189.391 916.8,171.561C912.48,176.995 825.975,286.437 739.948,445.834L805.874,515.639C845.124,419.235 847.869,306.077 847.869,306.077L916.969,217.974C890.074,722.871 604.196,884.385 604.196,884.385L627.606,786.941C708.668,716.974 754.636,640.357 779.265,587.043L706.813,509.989C643.924,637.516 587.211,788.834 570.72,941.677C536.002,770.247 485.083,626.798 432.849,511.967L360.988,588.395C385.766,641.646 431.64,717.563 512.019,786.941L535.43,884.385C535.43,884.385 249.552,722.871 222.657,217.974L291.757,306.077C291.757,306.077 294.528,420.336 334.325,517.04L401.285,446.141ZM570.72,687.585C580.997,581.741 654.307,440.346 654.307,440.346C654.307,440.346 589.295,350.329 570.72,293.176C552.145,350.329 487.133,440.346 487.133,440.346C487.133,440.346 560.443,581.741 570.72,687.585Z"/>
    </g>
    <g id="Splendor" transform="matrix(0.185059,0,0,0.182525,137.143456,795.542161)">
        <path d="M163.166,208.288L342.398,208.288C342.398,208.288 335.54,350.028 493.283,394.836L540,696.604L579.241,396.208C579.241,396.208 721.666,370.418 731.954,207.831L912.272,207.416C912.272,207.416 915.861,318.179 877.912,377.161L1006.392,505.641L856.879,421.054C856.879,421.054 802.927,495.057 769.092,517.529L854.136,721.11L719.255,549.651C719.255,549.651 661.768,585.154 593.061,590.344L540,1038.424L483.327,591.716C483.327,591.716 416.115,588.972 357.59,550.565L222.251,720.653L305.009,516.274C305.009,516.274 240.54,463.236 219.051,418.885L70.453,504.843L197.104,377.277C197.104,377.277 157.262,307.053 163.166,208.288ZM779.185,236.113C779.934,243.114 775.252,274.589 775.252,274.589L857.467,356.534C879.192,333.79 883.125,235.739 883.125,235.739L779.185,236.113ZM734.8,349.533C727.87,366.201 709.517,378 709.517,378L756.337,487.933C788.174,473.512 831.623,406.653 831.623,406.653L734.8,349.533ZM628.612,431.374C622.432,437.929 609.322,437.554 609.322,437.554L595.838,563.406C682.736,546.738 700.34,522.954 700.34,522.954L628.612,431.374ZM340.073,349.533L243.25,406.653C243.25,406.653 286.699,473.512 318.536,487.933L365.356,378C365.356,378 347.003,366.201 340.073,349.533ZM295.688,236.113L191.748,235.739C191.748,235.739 195.681,333.79 217.406,356.534L299.621,274.589C299.621,274.589 294.939,243.114 295.688,236.113ZM446.261,431.374L374.533,522.954C374.533,522.954 392.137,546.738 479.035,563.406L465.551,437.554C465.551,437.554 452.441,437.929 446.261,431.374ZM121.89,617.233L190.071,518.911L244.792,493.161L222.26,544.955L121.89,617.233ZM410.124,607.869L413.928,684.537L348.381,810.657L364.182,664.346L410.124,607.869ZM950.453,615.804L850.083,543.526L827.551,491.732L882.272,517.483L950.453,615.804ZM662.218,606.44L708.16,662.917L723.962,809.229L658.414,683.108L662.218,606.44ZM369.895,208.019L704.218,209.116C704.218,209.116 707.544,359.086 540,372.62C540,372.62 389.099,379.948 369.895,208.019Z"/>
    </g>
    <g id="Bone" transform="matrix(0.185059,0,0,0.182525,914.891009,496.146727)">
        <path d="M218.039,459.312C218.039,459.312 130.524,305.825 217.146,113.715C217.146,113.715 267.155,307.191 499.34,512.782C499.34,512.782 477.878,558.934 453.883,601.95C453.883,601.95 385.505,487.636 218.039,459.312ZM428.614,630.288L392.036,664.233C325.61,624.436 326.488,575.275 326.488,575.275C383.257,629.703 428.614,630.288 428.614,630.288ZM554.076,705.834C554.076,705.834 560.865,694.363 601.13,699.045C601.13,699.045 751.304,861.261 793.735,875.673C793.735,875.673 820.071,893.743 864.33,887.524C864.33,887.524 930.536,920.369 858.844,1000.184C858.844,1000.184 867.256,907.695 762.643,987.069C762.643,987.069 709.24,1006.822 720.579,956.344C720.579,956.344 730.089,916.84 720.213,912.085L554.076,705.834ZM634.933,697.922L669.755,689.373L836.843,834.807C836.843,834.807 886.004,833.935 881.029,868.459L811.385,869.916L634.933,697.922ZM469.484,699.537L548.89,610.579L519.3,607.77L436.139,697.922L259.687,869.916L190.043,868.459C185.068,833.935 234.229,834.807 234.229,834.807L401.421,689.041L492.699,588.39C503.246,576.764 507.403,554.397 507.403,554.397C510.329,521.038 532.908,516.991 532.908,516.991C553.939,516.193 561.628,523.741 561.628,523.741C562.317,522.56 569.08,515.52 571.732,512.782C802.883,307.59 853.926,113.715 853.926,113.715C940.548,305.825 853.033,459.312 853.033,459.312C685.567,487.636 617.189,601.95 617.189,601.95L617.11,601.809C614.365,606.962 597.81,622.056 605.541,626.676C613.403,631.374 643.835,629.633 643.835,629.633L658.741,627.516C676.864,622.78 708.406,609.961 744.584,575.275C744.584,575.275 745.462,624.436 679.036,664.233C653.849,681.462 578.433,667.254 565.119,673.871C544.084,684.326 516.996,705.834 516.996,705.834L350.859,912.085C340.983,916.84 350.493,956.344 350.493,956.344C361.832,1006.822 308.429,987.069 308.429,987.069C203.816,907.695 212.228,1000.184 212.228,1000.184C140.536,920.369 206.742,887.524 206.742,887.524C251.001,893.743 277.337,875.673 277.337,875.673C318.403,861.725 460.394,709.324 469.484,699.537Z"/>
    </g>
    <g transform="matrix(0.185059,0,0,0.182525,285.434617,-21.290745)">
        <path d="M438.798,839.931C489.693,714.548 549.08,437.421 549.08,437.421C604.286,687.041 663.142,840.014 663.142,840.014C585.109,914.998 549.08,971.611 549.08,971.611C481.351,863.222 438.798,839.931 438.798,839.931ZM550.97,898.088C550.97,898.088 585.586,852.103 616.84,824.933C616.84,824.933 569.472,691.722 550.97,610.343C550.97,610.343 507.595,769.403 487.599,825.489C487.599,825.489 528.505,861.93 550.97,898.088ZM649.994,791.87L631.949,737.187C631.949,737.187 938.177,656.404 822.74,311.928C822.74,311.928 1017.763,630.473 649.994,791.87ZM453.01,791.87C85.24,630.473 280.263,311.928 280.263,311.928C164.827,656.404 471.055,737.187 471.055,737.187L453.01,791.87ZM445.092,816.491L436.489,839.093C436.489,839.093 484.318,878.189 490.006,893.048C490.006,893.048 88.554,812.518 212.356,406.259C212.356,406.259 137.008,700.152 445.092,816.491ZM398.872,602.436C326.689,555.219 315.498,444.84 315.498,444.84C291.668,187.565 549.08,181.481 549.08,181.481C810.476,190.173 790.065,450.055 790.065,450.055C760.513,578.692 699.288,602.436 699.288,602.436C699.288,602.436 738.134,562.385 743.234,458.363C743.234,458.363 729.852,287.032 549.08,281.469C368.308,287.032 354.927,458.363 354.927,458.363C360.027,562.385 398.872,602.436 398.872,602.436ZM658.644,816.491C966.728,700.152 891.38,406.259 891.38,406.259C1015.182,812.518 616.237,892.82 616.237,892.82L667.247,839.093L658.644,816.491Z"/>
    </g>
</svg>
