<?xml version="1.0" encoding="UTF-8" standalone="no"?>
<!DOCTYPE svg PUBLIC "-//W3C//DTD SVG 1.1//EN" "http://www.w3.org/Graphics/SVG/1.1/DTD/svg11.dtd">
<svg width="100%" height="100%" viewBox="0 0 2000 2000" version="1.1" xmlns="http://www.w3.org/2000/svg" xmlns:xlink="http://www.w3.org/1999/xlink" xml:space="preserve" xmlns:serif="http://www.serif.com/" style="fill-rule:evenodd;clip-rule:evenodd;stroke-linejoin:round;stroke-miterlimit:2;">
    <g transform="matrix(1.254577,0,0,1.194495,-307.641806,-206.580112)">
        <path d="M1520.522,786.075L1556.579,758.965C1576.053,772.256 1593.835,788.179 1609.482,806.338L1590.727,848.94C1604.587,867.602 1615.803,888.334 1624.017,910.474L1667.967,914.441C1674.88,937.982 1678.911,962.377 1679.959,987.021L1639.931,1006.79C1639.308,1030.593 1635.413,1054.169 1628.37,1076.764L1659.648,1109.951C1650.764,1132.726 1639.158,1154.179 1625.117,1173.777L1582.547,1161.463C1567.732,1179.27 1550.548,1194.658 1531.543,1207.135L1535.514,1254.014C1530.874,1256.58 1526.168,1259 1521.402,1261.27L1447.249,1165.006C1517.869,1147.937 1570.663,1080.496 1570.663,1000C1570.663,951.123 1551.199,907.059 1520.097,876.163L1520.522,786.075Z"/>
    </g>
    <g transform="matrix(1.254577,0,0,1.194495,-307.641806,-206.580112)">
        <path d="M564.068,786.075L564.492,876.163C533.391,907.059 513.927,951.123 513.927,1000C513.927,1080.496 566.721,1147.937 637.341,1165.006L563.188,1261.27C558.422,1259 553.716,1256.58 549.076,1254.014L553.047,1207.135C534.042,1194.658 516.858,1179.27 502.043,1161.463L459.472,1173.777C445.432,1154.179 433.826,1132.726 424.942,1109.951L456.22,1076.764C449.177,1054.169 445.282,1030.593 444.659,1006.79L404.63,987.021C405.679,962.377 409.71,937.982 416.623,914.441L460.573,910.474C468.787,888.334 480.003,867.602 493.863,848.94L475.107,806.338C490.754,788.179 508.536,772.256 528.011,758.965L564.068,786.075Z"/>
    </g>
    <g transform="matrix(1.254577,0,0,1.194495,-307.641806,-206.580112)">
        <path d="M803.172,340.341L1281.421,340.341L1197.717,792.489L1042.297,842.683L886.841,792.489L803.172,340.341Z"/>
    </g>
    <g transform="matrix(1.254577,0,0,1.194495,-307.641806,-206.580112)">
        <path d="M1282.167,424.096L1301.348,424.096L1504.604,549.672L1504.604,1093.835L1241.568,1269.641L1177.793,1679.857L906.803,1679.857L843.024,1269.641L579.99,1093.835L579.99,549.672L783.245,424.096L802.419,424.096L873.726,809.445L1042.297,863.872L1210.829,809.445L1282.167,424.096ZM802.886,834.958C733.611,834.958 677.368,891.484 677.368,961.107C677.368,1030.73 733.611,1087.255 802.886,1087.255C872.161,1087.255 928.403,1030.73 928.403,961.107C928.403,891.484 872.161,834.958 802.886,834.958ZM1273.145,834.958C1203.87,834.958 1147.627,891.484 1147.627,961.107C1147.627,1030.73 1203.87,1087.255 1273.145,1087.255C1342.42,1087.255 1398.662,1030.73 1398.662,961.107C1398.662,891.484 1342.42,834.958 1273.145,834.958Z"/>
    </g>
    <g transform="matrix(1.254577,0,0,1.194495,-307.641806,-206.580112)">
        <path d="M1209.698,1625.432L1408.953,1432.891L1448.786,1478.92L1241.549,1663.086L1209.698,1625.432Z"/>
    </g>
    <g transform="matrix(1.254577,0,0,1.194495,-307.641806,-206.580112)">
        <path d="M874.864,1625.432L843.014,1663.086L635.776,1478.92L675.609,1432.891L874.864,1625.432Z"/>
    </g>
    <g transform="matrix(1.254577,0,0,1.194495,-307.641806,-206.580112)">
        <path d="M843.018,1535.618L699.548,1420.322L699.548,1223.601L823.091,1303.128L843.018,1535.618Z"/>
    </g>
    <g transform="matrix(1.254577,0,0,1.194495,-307.641806,-206.580112)">
        <path d="M1241.549,1535.618L1261.495,1303.128L1385.407,1222.854L1385.033,1420.322L1241.549,1535.618Z"/>
    </g>
</svg>
