<?xml version="1.0" encoding="UTF-8" standalone="no"?>
<!DOCTYPE svg PUBLIC "-//W3C//DTD SVG 1.1//EN" "http://www.w3.org/Graphics/SVG/1.1/DTD/svg11.dtd">
<svg width="100%" height="100%" viewBox="0 0 2000 2000" version="1.1" xmlns="http://www.w3.org/2000/svg" xmlns:xlink="http://www.w3.org/1999/xlink" xml:space="preserve" xmlns:serif="http://www.serif.com/" style="fill-rule:evenodd;clip-rule:evenodd;stroke-linejoin:round;stroke-miterlimit:2;">
    <g transform="matrix(2.371657,0,0,2.371657,-1371.012622,-1130.170451)">
        <path d="M748.476,863.353C745.322,737.517 782.188,569.05 1000,560.861C1216.023,568.983 1254.06,734.761 1251.593,860.244L1251.702,859.752C1251.702,859.752 1319.562,846.118 1288.99,956.837C1258.59,1066.934 1240.997,1040.907 1224.6,1023.375C1202.833,1077.468 1136.759,1208.695 1000,1235.495C862.235,1208.498 796.199,1075.533 774.927,1022.195C774.902,1022.452 775.127,1022.063 774.927,1022.195C760.927,1031.436 740.968,1067.555 710.397,956.837C679.825,846.118 748.476,863.353 748.476,863.353C748.476,863.353 747.968,861.026 748.476,863.353ZM1000,1208.832C1159.557,1177.565 1214.64,991.951 1214.64,991.951C1214.64,991.951 1321.944,599.628 1000,587.524C678.056,599.628 785.36,991.951 785.36,991.951C785.36,991.951 840.443,1177.565 1000,1208.832Z"/>
    </g>
</svg>
