<?xml version="1.0" encoding="UTF-8" standalone="no"?>
<!DOCTYPE svg PUBLIC "-//W3C//DTD SVG 1.1//EN" "http://www.w3.org/Graphics/SVG/1.1/DTD/svg11.dtd">
<svg width="100%" height="100%" viewBox="0 0 2000 2000" version="1.1" xmlns="http://www.w3.org/2000/svg" xmlns:xlink="http://www.w3.org/1999/xlink" xml:space="preserve" xmlns:serif="http://www.serif.com/" style="fill-rule:evenodd;clip-rule:evenodd;stroke-linejoin:round;stroke-miterlimit:2;">
    <g transform="matrix(1.552848,0,0,1.552848,-552.848251,-551.539515)">
        <path d="M1000,483.975C1353.044,486.165 1264.068,770.334 1264.068,770.334C1301.637,740.615 1319.581,784.907 1319.581,784.907C1345.935,867.89 1276.099,929.242 1276.099,929.242C1337.429,1028.246 1305.012,1093.081 1305.012,1093.081C1375.104,1170.181 1316.153,1250.227 1316.153,1250.227C1301.683,1218.532 1292.703,1227.454 1292.703,1227.454C1340.365,1349.133 1248.568,1393.977 1248.568,1393.977C1246.069,1372.516 1237.736,1375.7 1237.736,1375.7C1215.015,1478.179 1112.849,1478.336 1112.849,1478.336C1115.72,1473.312 1115.002,1457.163 1115.002,1457.163C1066.555,1519.606 1000,1514.223 1000,1514.223C1000,1514.223 933.445,1519.606 884.998,1457.163C884.998,1457.163 884.28,1473.312 887.151,1478.336C887.151,1478.336 784.985,1478.179 762.264,1375.7C762.264,1375.7 753.931,1372.516 751.432,1393.977C751.432,1393.977 659.635,1349.133 707.297,1227.454C707.297,1227.454 698.317,1218.532 683.847,1250.227C683.847,1250.227 624.896,1170.181 694.988,1093.081C694.988,1093.081 662.571,1028.246 723.901,929.242C723.901,929.242 654.065,867.89 680.419,784.907C680.419,784.907 698.363,740.615 735.932,770.334C735.932,770.334 646.956,486.165 1000,483.975ZM1000,716.214C980.028,719.659 929.495,714.576 860.408,710.656C791.322,706.736 792.467,811.291 792.467,811.291C779.757,945.119 856.771,981.977 856.771,981.977C924.358,910.203 1000,957.454 1000,957.454C1000,957.454 1075.642,910.203 1143.229,981.977C1143.229,981.977 1220.243,945.119 1207.533,811.291C1207.533,811.291 1208.678,706.736 1139.592,710.656C1070.505,714.576 1012.947,716.214 1000,716.214ZM1000,1018.725C962.671,1015.198 928.358,1052.24 928.358,1052.24C958.541,1076.15 999.895,1076.934 1000,1076.934C1000.105,1076.934 1041.459,1076.15 1071.642,1052.24C1071.642,1052.24 1037.329,1015.198 1000,1018.725Z"/>
    </g>
</svg>
