<?xml version="1.0" encoding="UTF-8" standalone="no"?>
<!DOCTYPE svg PUBLIC "-//W3C//DTD SVG 1.1//EN" "http://www.w3.org/Graphics/SVG/1.1/DTD/svg11.dtd">
<svg width="100%" height="100%" viewBox="0 0 2000 2000" version="1.1" xmlns="http://www.w3.org/2000/svg" xmlns:xlink="http://www.w3.org/1999/xlink" xml:space="preserve" xmlns:serif="http://www.serif.com/" style="fill-rule:evenodd;clip-rule:evenodd;stroke-linejoin:round;stroke-miterlimit:2;">
    <g transform="matrix(1.098628,0,0,1.078998,-98.939313,-28.25087)">
        <path d="M1376.066,767.982C1412.254,736.244 1633.703,541.126 1670.663,486.809C1710.937,427.622 1740.916,383.18 1723.314,522.736C1723.314,522.736 1712.486,573.747 1677.91,640.202C1643.334,706.658 1629.189,771.678 1629.975,803.547C1630.76,835.415 1633.904,926.791 1594.612,967.495C1594.612,967.495 1568.68,1009.86 1512.886,1063.855C1457.093,1117.85 1490.098,1151.078 1415.444,1225.84C1415.444,1225.84 1378.51,1264.052 1333.718,1238.301C1333.718,1238.301 1328.217,1338.814 1245.705,1415.238C1163.194,1491.662 1158.084,1591.013 1000.566,1594.668C833.937,1598.534 837.373,1491.662 754.861,1415.238C672.349,1338.814 666.848,1238.301 666.848,1238.301C622.056,1264.052 585.122,1225.84 585.122,1225.84C510.469,1151.078 543.473,1117.85 487.68,1063.855C431.886,1009.86 405.954,967.495 405.954,967.495C366.662,926.791 369.806,835.415 370.591,803.547C371.377,771.678 357.232,706.658 322.656,640.202C288.08,573.747 277.252,522.736 277.252,522.736C259.65,383.18 289.629,427.622 329.903,486.809C366.139,540.063 579.71,728.657 622.164,765.932C627.812,749.581 634.492,733.71 642.126,718.397C662.091,659.474 701.653,565.509 763.757,513.741L762.45,575.013C765.111,573.041 767.798,571.101 770.509,569.195C791.436,531.882 848.672,437.766 902.063,421.216C902.063,421.216 900.051,492.407 907.595,496.685C907.595,496.685 955.374,458.825 956.882,311.166C956.882,311.166 1000.637,316.784 1086.638,496.685C1086.638,496.685 1090.662,418.207 1095.691,415.017C1100.72,411.828 1266.245,593.501 1266.245,593.501C1279.875,602.183 1341.101,681.071 1376.066,767.982ZM1410.286,1099.446C1410.286,1099.446 1412.298,1041.497 1474.158,1018.105C1536.018,994.713 1579.773,899.948 1579.27,822.859C1578.767,745.771 1637.61,629.342 1643.645,602.228C1643.645,602.228 1501.819,746.303 1473.152,781.923C1444.485,817.543 1365.022,932.378 1369.549,995.643C1374.075,1058.909 1370.052,1061.833 1410.286,1099.446ZM1000.283,1536.39C1000.283,1536.39 1054.144,1550.854 1112.609,1491.709C1112.609,1491.709 1177.362,1415.95 1240.228,1336.868C1240.228,1336.868 1271.181,1306.434 1276.813,1251.568C1282.446,1196.703 1315.735,1157.773 1302.563,992.977C1289.391,828.182 1198.771,760.529 1179.376,764.841C1179.376,764.841 1136.857,762.001 1000.283,835.102C863.709,762.001 820.907,764.841 820.907,764.841C801.512,760.529 710.892,828.182 697.72,992.977C684.548,1157.773 717.837,1196.703 723.47,1251.568C729.102,1306.434 760.055,1336.868 760.055,1336.868C822.921,1415.95 887.674,1491.709 887.674,1491.709C946.139,1550.854 1000.283,1536.39 1000.283,1536.39ZM583.604,1099.446C623.839,1061.833 619.815,1058.909 624.341,995.643C628.868,932.378 549.405,817.543 520.738,781.923C492.071,746.303 350.245,602.228 350.245,602.228C356.281,629.342 415.123,745.771 414.62,822.859C414.117,899.948 457.872,994.713 519.732,1018.105C581.593,1041.497 583.604,1099.446 583.604,1099.446Z"/>
    </g>
    <path d="M349.475,747.244C489.829,799.384 497.909,953.526 497.909,953.526C432.411,924.605 489.403,1011.532 489.403,1011.532C399.662,958.957 463.459,895.422 463.459,895.422C442.193,855.442 422.604,825.245 422.604,825.245C386.853,860.546 406.467,922.899 406.467,922.899C357.981,853.83 403.915,801.685 403.915,801.685C391.581,785.097 349.475,747.244 349.475,747.244ZM1641.858,747.244C1641.858,747.244 1599.752,785.097 1587.418,801.685C1587.418,801.685 1633.352,853.83 1584.866,922.899C1584.866,922.899 1604.481,860.546 1568.729,825.245C1568.729,825.245 1549.14,855.442 1527.874,895.422C1527.874,895.422 1591.671,958.957 1501.93,1011.532C1501.93,1011.532 1558.922,924.605 1493.424,953.526C1493.424,953.526 1501.505,799.384 1641.858,747.244Z"/>
    <g transform="matrix(1,0,0,1,-25.639896,74.762128)">
        <path d="M877.538,1344.59C845.442,1317.586 837.651,1288.156 837.651,1288.156C837.651,1288.156 849.778,1306.346 879.352,1324.711C879.757,1321.637 880.226,1318.489 880.766,1315.268C880.766,1315.268 890.783,1279.282 906.244,1267.741C906.244,1267.741 904.404,1303.613 920.507,1344.584C948.039,1354.676 983.37,1362.116 1027.852,1362.33C1068.685,1362.527 1101.437,1356.493 1127.368,1347.815C1144.872,1305.517 1142.934,1267.741 1142.934,1267.741C1158.395,1279.282 1168.412,1315.268 1168.412,1315.268C1169.155,1319.701 1169.765,1323.994 1170.255,1328.149C1201.603,1309.097 1213.628,1289.177 1213.628,1289.177C1213.628,1289.177 1207.638,1320.351 1171.774,1347.794C1161.672,1355.525 1149.199,1362.959 1133.822,1369.318C1108.187,1379.917 1074.482,1387.526 1030.233,1388.53C980.744,1389.652 943.618,1381.074 915.89,1368.513C900.316,1361.457 887.707,1353.145 877.538,1344.59Z"/>
    </g>
</svg>
