<?xml version="1.0" encoding="UTF-8" standalone="no"?>
<!DOCTYPE svg PUBLIC "-//W3C//DTD SVG 1.1//EN" "http://www.w3.org/Graphics/SVG/1.1/DTD/svg11.dtd">
<svg width="100%" height="100%" viewBox="0 0 1080 1080" version="1.1" xmlns="http://www.w3.org/2000/svg" xmlns:xlink="http://www.w3.org/1999/xlink" xml:space="preserve" xmlns:serif="http://www.serif.com/" style="fill-rule:evenodd;clip-rule:evenodd;stroke-linecap:round;stroke-linejoin:round;stroke-miterlimit:1.5;">
    <g id="Layer2">
    </g>
    <g transform="matrix(1,0,0,1,1.57782,-82.9202)">
        <path d="M163.166,208.288L342.398,208.288C342.398,208.288 335.54,350.028 493.283,394.836L540,696.604L579.241,396.208C579.241,396.208 721.666,370.418 731.954,207.831L912.272,207.416C912.272,207.416 915.861,318.179 877.912,377.161L1006.39,505.641L856.879,421.054C856.879,421.054 802.927,495.057 769.092,517.529L854.136,721.11L719.255,549.651C719.255,549.651 661.768,585.154 593.061,590.344L540,1038.42L483.327,591.716C483.327,591.716 416.115,588.972 357.59,550.565L222.251,720.653L305.009,516.274C305.009,516.274 240.54,463.236 219.051,418.885L70.453,504.843L197.104,377.277C197.104,377.277 157.262,307.053 163.166,208.288ZM779.185,236.113C779.934,243.114 775.252,274.589 775.252,274.589L857.467,356.534C879.192,333.79 883.125,235.739 883.125,235.739L779.185,236.113ZM734.8,349.533C727.87,366.201 709.517,378 709.517,378L756.337,487.933C788.174,473.512 831.623,406.653 831.623,406.653L734.8,349.533ZM628.612,431.374C622.432,437.929 609.322,437.554 609.322,437.554L595.838,563.406C682.736,546.738 700.34,522.954 700.34,522.954L628.612,431.374ZM340.073,349.533L243.25,406.653C243.25,406.653 286.699,473.512 318.536,487.933L365.356,378C365.356,378 347.003,366.201 340.073,349.533ZM295.688,236.113L191.748,235.739C191.748,235.739 195.681,333.79 217.406,356.534L299.621,274.589C299.621,274.589 294.939,243.114 295.688,236.113ZM446.261,431.374L374.533,522.954C374.533,522.954 392.137,546.738 479.035,563.406L465.551,437.554C465.551,437.554 452.441,437.929 446.261,431.374ZM121.89,617.233L190.071,518.911L244.792,493.161L222.26,544.955L121.89,617.233ZM410.124,607.869L413.928,684.537L348.381,810.657L364.182,664.346L410.124,607.869ZM950.453,615.804L850.083,543.526L827.551,491.732L882.272,517.483L950.453,615.804ZM662.218,606.44L708.16,662.917L723.962,809.229L658.414,683.108L662.218,606.44ZM369.895,208.019L704.218,209.116C704.218,209.116 707.544,359.086 540,372.62C540,372.62 389.099,379.948 369.895,208.019Z" style="fill:none;stroke:black;stroke-width:4px;"/>
    </g>
</svg>
