<?xml version="1.0" encoding="UTF-8" standalone="no"?>
<!DOCTYPE svg PUBLIC "-//W3C//DTD SVG 1.1//EN" "http://www.w3.org/Graphics/SVG/1.1/DTD/svg11.dtd">
<svg width="100%" height="100%" viewBox="0 0 1080 1080" version="1.1" xmlns="http://www.w3.org/2000/svg" xmlns:xlink="http://www.w3.org/1999/xlink" xml:space="preserve" xmlns:serif="http://www.serif.com/" style="fill-rule:evenodd;clip-rule:evenodd;stroke-linecap:round;stroke-linejoin:round;stroke-miterlimit:1.5;">
    <g id="Layer2">
    </g>
    <g id="Valor" transform="matrix(1,0,0,1,-29.8129,-16.5133)">
        <path d="M401.285,446.141C309.361,264.105 222.657,171.349 222.657,171.349C315.042,188.977 406.841,199.696 498.054,203.5C491.094,237.511 471.412,293.176 471.412,293.176C395.33,282.777 377.041,272.483 377.041,272.483C397.89,288.704 452.392,374.044 452.392,374.044C485.622,345.785 511.928,254.233 524.211,204.402C555.175,205.245 586.071,205.29 616.9,204.536C629.197,254.397 655.485,345.81 688.686,374.044C688.686,374.044 743.188,288.704 764.037,272.483C764.037,272.483 745.748,282.777 669.666,293.176C669.666,293.176 650.062,237.732 643.065,203.703C734.913,200.102 826.158,189.391 916.8,171.561C912.48,176.995 825.975,286.437 739.948,445.834L805.874,515.639C845.124,419.235 847.869,306.077 847.869,306.077L916.969,217.974C890.074,722.871 604.196,884.385 604.196,884.385L627.606,786.941C708.668,716.974 754.636,640.357 779.265,587.043L706.813,509.989C643.924,637.516 587.211,788.834 570.72,941.677C536.002,770.247 485.083,626.798 432.849,511.967L360.988,588.395C385.766,641.646 431.64,717.563 512.019,786.941L535.43,884.385C535.43,884.385 249.552,722.871 222.657,217.974L291.757,306.077C291.757,306.077 294.528,420.336 334.325,517.04L401.285,446.141ZM570.72,687.585C580.997,581.741 654.307,440.346 654.307,440.346C654.307,440.346 589.295,350.329 570.72,293.176C552.145,350.329 487.133,440.346 487.133,440.346C487.133,440.346 560.443,581.741 570.72,687.585Z" style="fill:none;stroke:black;stroke-width:4px;"/>
    </g>
</svg>
