<?xml version="1.0" encoding="UTF-8" standalone="no"?>
<!DOCTYPE svg PUBLIC "-//W3C//DTD SVG 1.1//EN" "http://www.w3.org/Graphics/SVG/1.1/DTD/svg11.dtd">
<svg width="100%" height="100%" viewBox="0 0 2000 2000" version="1.1" xmlns="http://www.w3.org/2000/svg" xmlns:xlink="http://www.w3.org/1999/xlink" xml:space="preserve" xmlns:serif="http://www.serif.com/" style="fill-rule:evenodd;clip-rule:evenodd;stroke-linejoin:round;stroke-miterlimit:2;">
    <g transform="matrix(3.403991,0,0,3.403991,-2403.99147,-1864.453114)">
        <path d="M1000,1071.4C879.282,1064.671 798.856,944.674 798.856,944.674C798.856,944.674 736.054,870.657 781.473,785.986C826.893,701.314 766.574,625.615 1000,611.597C1233.426,625.615 1173.107,701.314 1218.527,785.986C1263.946,870.657 1201.144,944.674 1201.144,944.674C1201.144,944.674 1120.718,1064.671 1000,1071.4ZM852.176,776.659C852.176,776.659 875.373,769.808 874.225,743.376C873.076,716.943 863.889,704.311 851.487,700.865C839.084,697.42 825.074,731.682 828.519,743.376C831.964,755.069 829.897,778.267 852.176,776.659ZM1030.989,764.855C1031.43,764.12 1069.942,754.271 1052.744,745.157C1035.546,736.044 1030.989,764.855 1030.989,764.855ZM971.348,764.855C971.348,764.855 966.791,736.044 949.593,745.157C932.395,754.271 970.907,764.12 971.348,764.855ZM1150.161,776.659C1172.44,778.267 1170.373,755.069 1173.818,743.376C1177.263,731.682 1163.253,697.42 1150.85,700.865C1138.448,704.311 1129.26,716.943 1128.112,743.376C1126.964,769.808 1150.161,776.659 1150.161,776.659ZM1001.168,1036.377C1026.978,1033.685 1049.376,1037.274 1135.953,976.266C1222.531,915.258 1191.119,866.056 1191.119,866.056C1169.529,891.091 1152.074,878.918 1120.838,863.989C1089.602,849.06 1064.567,868.353 1054.232,874.554C1043.896,880.755 1001.168,903.952 1001.168,903.952C1001.168,903.952 957.272,880.755 946.937,874.554C936.601,868.353 911.567,849.06 880.331,863.989C849.094,878.918 831.639,891.091 810.049,866.056C810.049,866.056 778.637,915.258 865.215,976.266C951.792,1037.274 975.359,1033.685 1001.168,1036.377Z"/>
    </g>
</svg>
