<?xml version="1.0" encoding="UTF-8" standalone="no"?>
<svg 
  xmlns="http://www.w3.org/2000/svg" 
  xmlns:xlink="http://www.w3.org/1999/xlink" 
  xml:space="preserve" 
  width="100%" height="100%" 
  viewBox="0 0 1080 1080" 
  version="1.1"
  style="fill-rule:evenodd;clip-rule:evenodd;stroke-linecap:round;stroke-linejoin:round;stroke-miterlimit:1.5;"
>
    <g id="Blade" transform="matrix(1,0,0,1,-16.3557,0.782973)">
        <path d="M188.721,824.771C213.19,782.911 321.424,722.855 321.424,722.855C280.345,721.069 244.624,735.358 244.624,735.358C257.127,675.525 381.256,622.837 381.256,622.837C347.322,619.265 312.494,631.767 312.494,631.767C415.191,490.67 565.933,484.709 565.933,484.709C295.169,676.999 323.746,951.223 323.746,951.223L188.721,824.771ZM650.948,688.921C787.748,297.191 394.149,507.325 394.149,507.325C539.265,319.867 416.475,200.349 416.475,200.349C561.591,288.256 695.544,289.651 695.544,289.651C646.707,320.349 540,323.139 540,323.139C863.059,377.558 886.706,127.211 886.706,127.211C1044.38,515.932 650.948,688.921 650.948,688.921Z"
        fill="currentColor" 
      stroke="currentColor" 
      stroke-width="4"
      />
    </g>
</svg>
