<?xml version="1.0" encoding="UTF-8" standalone="no"?>
<!DOCTYPE svg PUBLIC "-//W3C//DTD SVG 1.1//EN" "http://www.w3.org/Graphics/SVG/1.1/DTD/svg11.dtd">
<svg width="100%" height="100%" viewBox="0 0 2000 2000" version="1.1" xmlns="http://www.w3.org/2000/svg" xmlns:xlink="http://www.w3.org/1999/xlink" xml:space="preserve" xmlns:serif="http://www.serif.com/" style="fill-rule:evenodd;clip-rule:evenodd;stroke-linejoin:round;stroke-miterlimit:2;">
    <g transform="matrix(1.506123,0,0,1.506123,-512.49811,-635.069837)">
        <path d="M819.298,1257.238C718.096,1345.346 728.862,1364.54 625.148,1310.351C521.435,1256.161 554.81,1224.581 563.064,1211.661C571.318,1198.742 612.319,1145.29 612.319,1145.29C456.364,1134.776 473.368,902.968 473.817,812.801C474.266,722.635 568.918,783.195 633.963,819.979C699.009,856.763 772.128,927.64 772.128,927.64C772.128,927.64 772.622,928.443 773.532,929.973C786.097,834.187 884.665,759.514 1004.233,759.514C1123.801,759.514 1222.369,834.187 1234.934,929.973C1235.844,928.443 1236.338,927.64 1236.338,927.64C1236.338,927.64 1309.458,856.763 1374.503,819.979C1439.548,783.195 1534.201,722.635 1534.649,812.801C1535.098,902.968 1552.102,1134.776 1396.147,1145.29C1396.147,1145.29 1437.148,1198.742 1445.402,1211.661C1453.656,1224.581 1487.031,1256.161 1383.318,1310.351C1279.604,1364.54 1290.37,1345.346 1189.169,1257.238C1188.614,1256.755 1188.066,1256.267 1187.526,1255.775C1098.25,1408.356 1002.355,1411.717 1002.355,1411.717C869.717,1377.552 819.298,1257.238 819.298,1257.238ZM1004.233,1388.036C1008.339,1385.933 1143.816,1332.663 1184.469,1211.404C1234.235,1062.964 1170.184,958.948 1110.927,952.287C1051.671,945.626 1004.233,994.318 1004.233,994.318C1004.233,994.318 956.795,945.626 897.539,952.287C838.282,958.948 774.231,1062.964 823.997,1211.404C864.65,1332.663 1000.127,1385.933 1004.233,1388.036Z"/>
    </g>
</svg>
