<?xml version="1.0" encoding="UTF-8" standalone="no"?><!DOCTYPE svg PUBLIC "-//W3C//DTD SVG 1.1//EN" "http://www.w3.org/Graphics/SVG/1.1/DTD/svg11.dtd"><svg width="100%" height="100%" viewBox="0 0 434 434" version="1.1" xmlns="http://www.w3.org/2000/svg" xmlns:xlink="http://www.w3.org/1999/xlink" xml:space="preserve" xmlns:serif="http://www.serif.com/" style="fill-rule:evenodd;clip-rule:evenodd;stroke-linecap:round;stroke-linejoin:round;stroke-miterlimit:1.5;"><path d="M114.3,345.8c-0.4,0.4 -14.2,12.2 -32.1,-5.8c0,0 -9.8,-12.1 -1.3,-26.7c0,0 -13.6,-4.3 -15.2,-20.9c-1.6,-16.6 10.2,-22.3 9.4,-22.3c0,0 -35.5,-38.5 -29.5,-94c0,0 -2.6,-7.7 19.2,1.8c0,0 5.7,2.7 10.2,4c0,0 1.5,-6.1 6.4,-6.9c0,0 -12.3,-15.9 -1.3,-30.5c11,-14.6 20.3,-10.5 20.7,-11.2c0,0 -2.9,-15.5 8.4,-24.2c8.6,-6.6 17.7,-9.1 26.7,-3.8c0,0 -1.7,-18.8 19.1,-24.4c20.8,-5.6 28.4,5.9 30.9,8.4c0,0 6.4,-17.3 27.7,-17.1c21.2,0.2 22.6,14.5 25.2,15.2c0,0 8.4,-14 29.8,-8.9c21.4,5.1 18.8,24.5 19.9,21.3c0,0 18.1,-8.2 29.7,3.5c11.7,11.7 8.4,22.8 8.9,23.3c0,0 18.6,-1.7 27.1,15.5c8.5,17.2 -1.9,26.8 -3.7,29.7c0,0 7.2,5.4 8.6,10c0,0 28.5,-14.2 29.2,-6.7c0.7,7.5 0.8,66.8 -29.5,94.2c0,0 15.4,13.9 8,29c-7.4,15.2 -10.6,11.3 -14.9,14.2c0,0 11,14.2 -3.3,30.5c-13.6,15.5 -29.2,4.7 -29.4,3.3c0.1,-0.1 0.1,-0.1 0.1,-0.1c-0.1,0 -0.1,0.1 -0.1,0.1c-0.8,1.2 -6.6,9.4 -20.6,9.3c-15.1,-0.1 -18.1,-11.6 -20.9,-16.2c0,0 -22.1,22.2 -57.9,21.5c-35.8,-0.7 -51.7,-11.5 -64.3,-21.4c0,0 -2.7,11.1 -18,15.7c-15.1,4.4 -23.3,-9.1 -23.3,-9.5l0,-0c-0,-0 -0,0 -0,0Zm103.7,-169.8c-15.6,32 -47.1,10.3 -47.1,10.3c-4.1,31 -35.5,25.1 -35.5,25.1c2.6,39.6 -12.3,36.2 -12.3,36.2c-4.7,-0.9 8.9,113.6 101,104c92.1,-9.6 86.1,-105.2 86.1,-105.2c-9.9,2.5 -9.1,-23.7 -9.1,-23.7c-19.8,-2.1 -18.6,-22.3 -18.6,-22.3c-22.5,5.6 -29,-17.1 -29,-17.1c-22.5,13.2 -35.5,-7.3 -35.5,-7.3Zm-79.8,-43.1c5,-5.7 12.9,-4.2 12.9,-4.2c7.2,-2.2 1.3,-5.6 1.3,-5.6c-7.8,-1.9 -12.8,1.9 -18.5,6.8c-5.7,4.8 -3.9,16 -3.4,17.5c0.5,1.5 1.3,5.4 4,4c2.6,-1.4 1.3,-3.9 1.3,-3.9c-2.9,-8.6 2.5,-14.6 2.5,-14.6Zm181.7,110.9c0,0 3.3,23.3 -4.7,39.7c0,0 60,-3.3 64.7,-99.7c0,0 -32.2,9.4 -51.9,32.8c0,0 -0.6,19.1 -8.1,27.1Zm5.8,-0c0,0 16.1,-40.4 41.9,-45.8c0,0 6.6,-0.7 -1,5.2c0,0 -19.2,14.4 -25.3,28.7c0,0 18.8,17.8 -9.6,33.5c0,0 -4,0.1 0.3,-4c0,0 14.8,-16 2.8,-21.9c0,0 -10.5,11.7 -9.3,4.2Zm-5.1,78.1c-4.9,5.8 -12.8,4.4 -12.8,4.4c-7.2,2.3 -1.2,5.6 -1.2,5.6c7.9,1.8 12.7,-2.2 18.3,-7.1c5.6,-4.9 3.6,-16 3.1,-17.6c-0.5,-1.5 -1.4,-5.3 -4,-3.9c-2.6,1.5 -1.3,3.9 -1.3,3.9c3.1,8.5 -2.2,14.7 -2.2,14.7Zm-52.9,-203.2c5.9,4.9 4.5,12.7 4.5,12.7c2.4,7.1 5.6,1.1 5.6,1.1c1.7,-7.9 -2.3,-12.7 -7.3,-18.3c-5,-5.6 -16.1,-3.5 -17.6,-3c-1.5,0.5 -5.3,1.5 -3.8,4.1c1.5,2.6 3.9,1.2 3.9,1.2c8.5,-3.1 14.7,2.1 14.7,2.1Zm-75.8,3.6c7.6,-0.7 12.2,5.8 12.2,5.8c6.7,3.3 4.7,-3.2 4.7,-3.2c-4.4,-6.8 -10.6,-7.3 -18.1,-7.7c-7.5,-0.4 -13.8,8.9 -14.5,10.4c-0.7,1.5 -2.7,4.8 0.2,5.6c2.9,0.8 3.6,-1.9 3.6,-1.9c3.8,-8.2 11.8,-9 11.8,-9Zm133.2,26.5c3.9,6.6 -0.1,13.5 -0.1,13.5c-0.2,7.5 4.9,3 4.9,3c4.3,-6.8 2.2,-12.7 -0.6,-19.7c-2.8,-6.9 -13.9,-8.8 -15.5,-8.8c-1.6,-0 -5.5,-0.4 -5,2.5c0.5,2.9 3.3,2.5 3.3,2.5c9.1,-0 13.1,7 13.1,7Zm-133.9,15.6c-7.6,-0.3 -11.3,-7.4 -11.3,-7.4c-6.2,-4.2 -5.1,2.5 -5.1,2.5c3.4,7.3 9.5,8.7 16.8,10.2c7.3,1.4 14.9,-6.9 15.8,-8.3c0.9,-1.4 3.4,-4.4 0.6,-5.6c-2.7,-1.2 -3.9,1.4 -3.9,1.4c-4.9,7.6 -13,7.2 -13,7.2Zm-79,156.1c-4.7,-6 -1.7,-13.4 -1.7,-13.4c-0.8,-7.5 -5.2,-2.3 -5.2,-2.3c-3.4,7.3 -0.5,12.9 3.2,19.4c3.7,6.5 14.9,6.9 16.5,6.7c1.6,-0.2 5.5,-0.3 4.6,-3.1c-0.9,-2.9 -3.6,-2 -3.6,-2c-9,1.2 -13.9,-5.2 -13.9,-5.2Zm108.8,-218c7.5,-1.5 12.7,4.6 12.7,4.6c7,2.7 4.4,-3.6 4.4,-3.6c-5,-6.3 -11.3,-6.3 -18.8,-5.9c-7.5,0.3 -12.9,10.2 -13.4,11.8c-0.5,1.5 -2.2,5.1 0.7,5.6c2.9,0.5 3.4,-2.3 3.4,-2.3c3,-8.6 10.9,-10.1 10.9,-10.1Zm-115.3,70.5c3,-7 10.9,-8 10.9,-8c6.1,-4.3 -0.5,-5.7 -0.5,-5.7c-8,0.6 -11.5,5.8 -15.4,12.2c-3.9,6.4 1.3,16.4 2.2,17.7c1,1.3 2.9,4.7 5,2.5c2.1,-2.2 0,-4.1 0,-4.1c-5.4,-7.3 -2.2,-14.7 -2.2,-14.7Zm197.2,8.3c2.4,7.2 -2.9,13.2 -2.9,13.2c-1.8,7.3 4.2,3.9 4.2,3.9c5.6,-5.8 4.8,-12 3.5,-19.4c-1.3,-7.4 -11.8,-11.5 -13.3,-11.8c-1.6,-0.4 -5.3,-1.6 -5.4,1.4c-0.1,3 2.7,3.1 2.7,3.1c8.9,1.9 11.3,9.6 11.3,9.6Zm-188.9,62.6c-7.4,-8 -8.1,-27.1 -8.1,-27.1c-19.7,-23.4 -51.9,-32.8 -51.9,-32.8c4.7,96.4 64.7,99.7 64.7,99.7c-7.9,-16.5 -4.7,-39.7 -4.7,-39.7Zm-5.4,-0c1.2,7.4 -9.3,-4.2 -9.3,-4.2c-12,5.9 2.8,21.9 2.8,21.9c4.4,4.1 0.3,4 0.3,4c-28.4,-15.8 -9.6,-33.5 -9.6,-33.5c-6.1,-14.4 -25.3,-28.7 -25.3,-28.7c-7.6,-5.9 -1,-5.2 -1,-5.2c25.8,5.4 41.9,45.8 41.9,45.8Z" style="stroke:#f00;stroke-width:0.9px;"/></svg>