<?xml version="1.0" encoding="UTF-8" standalone="no"?>
<svg 
  xmlns="http://www.w3.org/2000/svg" 
  xmlns:xlink="http://www.w3.org/1999/xlink" 
  xml:space="preserve" 
  width="100%" height="100%" 
  viewBox="0 0 1080 1080" 
  version="1.1"
  style="fill-rule:evenodd;clip-rule:evenodd;stroke-linecap:round;stroke-linejoin:round;stroke-miterlimit:1.5;"
>
    <g id="Sage" transform="matrix(1,0,0,1,1.85825,-26.1242)">
        <path d="M361.601,951.039C361.601,951.039 458.991,996.304 474.994,900.744C474.994,900.744 477.28,855.478 421.041,859.593C421.041,859.593 178.125,891.161 172.544,638.882C172.544,638.882 171.427,570.789 210.497,527.255C210.497,527.255 165.846,671.254 247.334,752.743C247.334,752.743 256.747,652.655 347.049,657.227C347.049,657.227 417.348,654.941 445.353,721.239C445.353,721.239 318.472,622.935 299.612,745.815C299.612,745.815 290.467,805.826 379.627,795.539C379.627,795.539 480.856,806.165 493.414,676.398C493.414,676.398 505.972,543.84 341.321,488.026C341.321,488.026 411.559,518.461 422.167,569.305C422.167,569.305 314.342,552.024 283.616,427.535C283.616,427.535 161.811,478.741 149.008,351.33C149.008,351.33 145.716,298.905 192.536,272.568C192.536,272.568 125.964,370.232 219.239,398.763C219.239,398.763 261.669,402.421 266.424,365.843C266.424,365.843 282.167,165.304 488.634,155.302C488.634,155.302 647.235,143.872 709.389,311.045C709.389,311.045 629.374,188.88 502.922,193.166C502.922,193.166 534.357,215.313 529.356,281.04C529.356,281.04 492.921,411.064 382.186,354.625C382.186,354.625 479.347,375.343 492.921,276.039C492.921,276.039 485.776,228.887 440.054,223.172C440.054,223.172 362.182,225.315 347.179,340.336C347.179,340.336 348.608,499.652 517.925,495.365C517.925,495.365 600.798,506.081 634.375,456.072C634.375,456.072 586.509,494.651 522.212,466.788C522.212,466.788 595.082,384.63 727.25,417.494C727.25,417.494 741.538,336.764 825.839,334.621C825.839,334.621 941.575,334.175 925.858,453.929C925.858,453.929 903.711,365.788 837.27,367.216C837.27,367.216 776.545,371.503 786.546,440.801C786.546,440.801 890.137,522.96 877.992,629.408C877.992,629.408 882.993,857.307 616.515,845.162C616.515,845.162 774.401,828.016 803.692,728.712C803.692,728.712 675.097,731.759 689.386,620.12C689.386,620.12 691.529,579.209 714.39,556.348C714.39,556.348 676.526,693.516 785.832,684.229C785.832,684.229 829.411,673.709 827.268,630.129C827.268,630.129 818.695,494.39 675.812,494.39C675.812,494.39 501.349,520.648 540,719.432C540,719.432 515.782,666.74 580.08,608.157C580.08,608.157 617.944,767.473 492.921,833.914C492.921,833.914 526.498,880.14 505.066,926.788C505.066,926.788 474.045,1021.52 361.601,951.039Z"
        fill="currentColor" 
        stroke="currentColor" 
        stroke-width="4"/>
    </g>
</svg>
