<?xml version="1.0" encoding="UTF-8" standalone="no"?>
<!DOCTYPE svg PUBLIC "-//W3C//DTD SVG 1.1//EN" "http://www.w3.org/Graphics/SVG/1.1/DTD/svg11.dtd">
<svg width="100%" height="100%" viewBox="0 0 2000 2000" version="1.1" xmlns="http://www.w3.org/2000/svg" xmlns:xlink="http://www.w3.org/1999/xlink" xml:space="preserve" xmlns:serif="http://www.serif.com/" style="fill-rule:evenodd;clip-rule:evenodd;stroke-linecap:round;stroke-linejoin:round;stroke-miterlimit:1.5;">
    <g transform="matrix(1.929434,0,0,1.695663,-932.176985,-624.209949)">
        <path d="M1000,692.773C1030.861,694.46 1103.497,702.488 1111.596,701.963C1138.618,700.21 1164.95,680.197 1163.08,681.208C1306.747,583.559 1400.604,711.715 1398.97,771.355C1397.995,806.923 1368.777,858.392 1367.701,861.348C1361.836,877.458 1375.925,914.224 1378.366,913.727C1442.704,1010.475 1414.343,1083.112 1369.885,1134.259C1302.095,1212.247 1206.895,1268.056 978.915,1270.019C778.967,1271.74 714.122,1219.211 647.638,1150.21C641.05,1143.372 567.524,1074.759 591.626,979.644C600.139,946.05 618.425,918.552 621.634,913.727C621.877,911.091 643.738,884.534 627.521,849.954C622.261,838.737 575.713,774.551 622.548,708.818C652.712,666.483 727.271,606.681 836.92,681.208C857.944,694.311 856.515,698.344 881.062,701.261C905.465,704.162 943.21,695.878 1000,692.773ZM1285.102,685.266C1235.276,685.266 1194.824,732.153 1194.824,789.904C1194.824,847.655 1235.276,894.542 1285.102,894.542C1334.928,894.542 1375.38,847.655 1375.38,789.904C1375.38,732.153 1334.928,685.266 1285.102,685.266ZM1285.102,714.547C1320.985,714.547 1350.117,748.313 1350.117,789.904C1350.117,831.494 1320.985,865.261 1285.102,865.261C1249.219,865.261 1220.087,831.494 1220.087,789.904C1220.087,748.313 1249.219,714.547 1285.102,714.547ZM1000,1247.868C1445.63,1203.841 1379.16,1010.025 1379.16,1010.025C1374.196,1012.386 1351.656,1033.848 1304.723,1017.634C1237.076,994.264 1169.061,957.679 1020.041,950.177C1013.367,949.841 1006.678,950.095 1000,950.305C1014.871,948.754 913.497,951.799 851.353,965.809C809.202,975.312 698.145,1017.282 673.952,1023.015C646.326,1029.562 646.751,1022.346 620.84,1010.025C620.84,1010.025 565.322,1216.303 1000,1247.868ZM1074.077,835.355C1069.436,835.355 1065.669,842.01 1065.669,850.208C1065.669,858.405 1069.436,865.06 1074.077,865.06C1078.717,865.06 1082.484,858.405 1082.484,850.208C1082.484,842.01 1078.717,835.355 1074.077,835.355ZM718.201,685.266C668.375,685.266 627.923,732.153 627.923,789.904C627.923,847.655 668.375,894.542 718.201,894.542C768.027,894.542 808.479,847.655 808.479,789.904C808.479,732.153 768.027,685.266 718.201,685.266ZM718.201,714.547C754.084,714.547 783.216,748.313 783.216,789.904C783.216,831.494 754.084,865.261 718.201,865.261C682.318,865.261 653.186,831.494 653.186,789.904C653.186,748.313 682.318,714.547 718.201,714.547ZM926.94,835.355C922.3,835.355 918.532,842.01 918.532,850.208C918.532,858.405 922.3,865.06 926.94,865.06C931.581,865.06 935.348,858.405 935.348,850.208C935.348,842.01 931.581,835.355 926.94,835.355Z" style="stroke:black;stroke-width:2.29px;"/>
    </g>
</svg>
