<?xml version="1.0" encoding="UTF-8" standalone="no"?>
<!DOCTYPE svg PUBLIC "-//W3C//DTD SVG 1.1//EN" "http://www.w3.org/Graphics/SVG/1.1/DTD/svg11.dtd">
<svg width="100%" height="100%" viewBox="0 0 1080 1080" version="1.1" xmlns="http://www.w3.org/2000/svg" xmlns:xlink="http://www.w3.org/1999/xlink" xml:space="preserve" xmlns:serif="http://www.serif.com/" style="fill-rule:evenodd;clip-rule:evenodd;stroke-linecap:round;stroke-linejoin:round;stroke-miterlimit:1.5;">
    <path d="M394.138,517.768C191.271,434.244 208.162,231.938 208.162,231.938C263.973,299.809 376.89,353.816 376.89,353.816C471.194,404.111 512.344,487.556 512.344,487.556C508.915,474.982 518.059,460.122 518.059,460.122C472.337,380.678 451.761,374.853 451.761,374.853C506.057,373.6 530.633,451.549 530.633,451.549C534.062,444.69 551.78,449.834 551.78,449.834C579.785,364.104 630.652,374.853 630.652,374.853C586.644,395.318 563.782,462.408 563.782,462.408C571.784,474.41 572.355,489.842 572.355,489.842C600.36,456.693 601.503,404.683 708.38,355.531C815.258,306.379 872.411,231.938 872.411,231.938C887.842,428.976 691.806,517.768 691.806,517.768C755.246,514.262 781.537,502.413 781.537,502.413C757.532,556.137 683.233,562.995 683.233,562.995C650.084,545.278 627.223,540 627.223,540C834.118,686.751 751.817,848.726 751.817,848.726C724.955,787.18 647.798,714.415 647.798,714.415C584.929,663.548 564.678,595.536 564.678,595.536C545.818,750.422 540,736.705 540,736.705C526.181,719.559 516.669,598.965 516.669,598.965C505.239,650.403 440.084,709.843 440.084,709.843C353.782,791.572 330.349,848.137 330.349,848.137C260.05,646.368 456.087,540 456.087,540C449.8,539.349 394.138,565.227 394.138,565.227C331.046,558.369 284.055,492.071 301.15,502.358C318.245,512.646 394.138,517.768 394.138,517.768ZM471.839,504.13C461.552,471.424 403.827,397.382 403.827,397.382C402.684,428.244 421.544,461.394 421.544,461.394C416.972,457.964 294.092,390.966 294.092,390.966C376.965,523.434 471.839,504.13 471.839,504.13ZM609.579,504.13C609.579,504.13 704.454,523.434 787.327,390.966C787.327,390.966 664.447,457.964 659.874,461.394C659.874,461.394 678.735,428.244 677.592,397.382C677.592,397.382 619.867,471.424 609.579,504.13ZM344.387,758.02C344.387,758.02 356.961,739.159 420.973,674.004C420.973,674.004 483.842,609.993 485.556,573.986C485.556,573.986 382.108,598.248 344.387,758.02ZM736.46,758.02C698.739,598.248 595.291,573.986 595.291,573.986C597.005,609.993 659.874,674.004 659.874,674.004C723.886,739.159 736.46,758.02 736.46,758.02Z" style="fill:none;stroke:black;stroke-width:4px;"/>
    <g id="Layer1">
    </g>
</svg>
