<?xml version="1.0" encoding="UTF-8" standalone="no"?>
<!DOCTYPE svg PUBLIC "-//W3C//DTD SVG 1.1//EN" "http://www.w3.org/Graphics/SVG/1.1/DTD/svg11.dtd">
<svg width="100%" height="100%" viewBox="0 0 1080 1080" version="1.1" xmlns="http://www.w3.org/2000/svg" xmlns:xlink="http://www.w3.org/1999/xlink" xml:space="preserve" xmlns:serif="http://www.serif.com/" style="fill-rule:evenodd;clip-rule:evenodd;stroke-linecap:round;stroke-linejoin:round;stroke-miterlimit:1.5;">
    <g id="Layer2">
    </g>
    <g id="Arcana" transform="matrix(1,0,0,1,1.27606,-28.3842)">
        <path d="M561.943,596.899L693.682,692.345L685.68,854.089L607.952,695.203L647.959,696.346L561.943,596.899ZM498.333,499.671L366.595,404.225L372.881,217.333L452.325,401.367L413.46,380.221L498.333,499.671ZM445.426,813.959L533.442,619.638L591.167,783.668L530.138,1028.29L509.438,760.235L445.426,813.959ZM612.768,284.859L536.639,472.323L478.914,308.292L534,108.484L556.529,335.84L612.768,284.859ZM596.661,540L799.669,427.218L776.351,466.997L966.1,493.059L677.59,535.711L711.425,504.947L596.661,540ZM502.67,590.475L423.454,667.553L471.452,645.812L358.484,816.072L366.595,718.708L197.842,769.482L502.67,590.475ZM612.768,581.502L792.535,572.929L733.238,597.933L1003.29,685.092L718.236,647.943L612.768,581.502ZM468.642,525.637L286.878,524.522L346.838,501.153L74.16,402.962L363.207,451.574L468.642,525.637ZM80.055,590.475L354.391,564.196L333.542,590.475L477.66,554.685L260.751,664.054L287.819,622.355L80.055,590.475ZM555.524,515.586L621.365,410.826L627.51,439.503L707.397,265.976L703.007,370.736L859.854,318.064L555.524,515.586Z" style="fill:none;stroke:black;stroke-width:4px;"/>
    </g>
</svg>
