<?xml version="1.0" encoding="UTF-8" standalone="no"?>
<!DOCTYPE svg PUBLIC "-//W3C//DTD SVG 1.1//EN" "http://www.w3.org/Graphics/SVG/1.1/DTD/svg11.dtd">
<svg width="100%" height="100%" viewBox="0 0 2000 2000" version="1.1" xmlns="http://www.w3.org/2000/svg" xmlns:xlink="http://www.w3.org/1999/xlink" xml:space="preserve" xmlns:serif="http://www.serif.com/" style="fill-rule:evenodd;clip-rule:evenodd;stroke-linejoin:round;stroke-miterlimit:2;">
    <g transform="matrix(1.372102,0,0,1.372102,-371.939555,-407.378388)">
        <path d="M734.403,1055.18C729.78,1037.057 729.578,1026.061 729.578,1026.061C613.282,961.267 619.097,823.373 619.097,823.373C614.113,775.193 550.648,551.738 550.648,551.738C571.25,623.51 669.836,722.945 669.836,722.945C687.779,639.211 735.957,562.115 735.957,562.115C856.571,400.621 999.763,449.666 999.763,449.666L999.882,449.861L1000,449.666C1000,449.666 1143.192,400.621 1263.807,562.115C1263.807,562.115 1311.985,639.211 1329.928,722.945C1329.928,722.945 1428.514,623.51 1449.115,551.738C1449.115,551.738 1385.65,775.193 1380.666,823.373C1380.666,823.373 1386.481,961.267 1270.185,1026.061C1270.185,1026.061 1267.27,1198.013 1000,1302.68C950.831,1283.424 910.601,1261.892 877.684,1239.572C877.02,1248.166 870.997,1264.71 846.192,1278.736C812.918,1297.551 807.866,1318.804 807.866,1318.804C818.493,1309.397 814.312,1310.964 837.83,1298.073C861.348,1285.182 868.839,1275.6 868.839,1275.6C898.105,1309.919 855.425,1356.084 840.791,1359.22C826.158,1362.356 810.252,1389.621 810.252,1389.621C841.609,1362.619 864.256,1357.474 864.256,1357.474C885.858,1410.514 843.292,1430.467 843.292,1430.467C763.271,1460.605 762.111,1390.225 762.111,1390.225C773.919,1414.014 809.643,1414.615 809.643,1414.615C799.027,1400.189 784.056,1393.928 784.056,1393.928C726.622,1362.081 751.586,1316.495 751.586,1316.495C782.508,1356.127 813.647,1354.36 813.647,1354.36C785.992,1323.631 775.757,1322.287 775.757,1322.287C720.446,1304.369 743.209,1240.293 743.209,1240.293C762.923,1275.672 810.523,1281.546 810.523,1281.546C794.356,1256.878 777.872,1250.575 777.872,1250.575C694.511,1209.32 732.812,1143.197 732.812,1143.197C736.819,1152.255 734.38,1153.126 768.002,1171.767C801.624,1190.407 810.161,1199.64 810.161,1199.64C796.572,1175.773 763.361,1158.032 763.361,1158.032C714.876,1126.358 724.838,1079.33 734.403,1055.18ZM844.567,1214.955C840.416,1211.567 836.415,1208.174 832.559,1204.78C815.239,1215.552 800.027,1245.637 800.027,1245.637C812.047,1227.519 843.578,1215.847 843.578,1215.847L844.567,1214.955ZM1000,1271.32C1000,1271.32 1071.773,1267.398 1190.679,1145.321C1270.425,1063.449 1264.004,874.862 1246.352,821.906C1246.352,821.906 1123.672,763.06 1080.418,730.97C1037.164,698.88 1010.019,676.95 1000,647.71L999.882,647.368L999.763,647.71C989.744,676.95 962.6,698.88 919.345,730.97C876.091,763.06 753.412,821.906 753.412,821.906C735.759,874.862 729.339,1063.449 809.085,1145.321C927.99,1267.398 1000,1271.32 1000,1271.32ZM712.47,993.71C716.723,978.824 731.184,921.833 715.447,856.76C699.711,791.687 606.142,687.486 606.142,687.486C619.327,723.637 621.028,707.475 637.19,828.264C653.352,949.053 712.47,993.71 712.47,993.71ZM701.974,930.371C648.828,906.248 678.991,862.628 678.991,862.628C675.588,825.625 642.308,775.98 642.308,775.98C701.539,805.813 701.974,930.371 701.974,930.371ZM1289.922,993.71C1289.922,993.71 1349.041,949.053 1365.202,828.264C1381.364,707.475 1383.065,723.637 1396.25,687.486C1396.25,687.486 1302.682,791.687 1286.945,856.76C1271.208,921.833 1285.669,978.824 1289.922,993.71ZM1297.772,930.371C1297.772,930.371 1298.208,805.813 1357.438,775.98C1357.438,775.98 1324.158,825.625 1320.756,862.628C1320.756,862.628 1350.919,906.248 1297.772,930.371ZM787.982,1553.637C723.518,1499.78 782.198,1439.832 782.198,1439.832C815.543,1460.587 843.443,1439.901 843.443,1439.901C896.522,1504.278 852.97,1554.906 852.97,1554.906C858.074,1530.408 844.804,1510.333 844.804,1510.333C850.248,1581.105 802.613,1608.757 802.613,1608.757C814.862,1564.616 785.941,1518.251 785.941,1518.251C783.6,1536.548 787.982,1553.637 787.982,1553.637Z"/>
    </g>
</svg>
