<?xml version="1.0" encoding="UTF-8" standalone="no"?>
<svg 
  xmlns="http://www.w3.org/2000/svg" 
  xmlns:xlink="http://www.w3.org/1999/xlink" 
  xml:space="preserve" 
  width="100%" height="100%" 
  viewBox="0 0 1080 1080" 
  version="1.1"
  style="fill-rule:evenodd;clip-rule:evenodd;stroke-linecap:round;stroke-linejoin:round;stroke-miterlimit:1.5;">
    <path d="M442.523,713.398c0,0 -67.669,119.977 -67.304,134.974c0,0 46.455,-52.307 79.009,-103.15c0,-0 12.071,23.044 6.219,66.206c-0,0 -83.764,87.788 -109.735,90.714c0,0 -19.565,-24.897 84.861,-201.912l6.95,13.168Zm132.224,-227.895l-7.495,-13.786l22.942,-37.456c50.194,7.257 57.589,-19.665 57.589,-19.665c10.3,-58.993 -93.875,-36.987 -93.875,-36.987c-11.471,3.511 -9.832,-6.321 -9.832,-6.321l16.997,-31.604c62.646,-18.26 122.2,15.685 122.2,15.685c55.95,-40.968 67.232,-73.605 67.232,-73.605c-8.51,-19.417 14.383,-29.485 14.383,-29.485l0.24,-37.996l20.856,-28.047l36.796,-12.585l37.397,14.623l20.495,30.204l-0.359,36.797l-22.414,30.564l-32.627,10.767c-3.141,24.19 -23.077,22.322 -23.077,22.322c-34.823,47.113 -43.309,89.836 -43.309,89.836c58.525,57.355 52.884,111.741 52.884,111.741l-22.174,23.672c-9.29,8.091 -10.039,-4.177 -10.039,-4.177c2.847,-43.431 -29.665,-76.432 -29.665,-76.432c-19.327,-22.773 -49.592,-4.345 -54.686,15.882c-5.094,20.226 8.54,33.71 12.136,36.107c3.596,2.397 -2.098,9.289 -2.098,9.289l-41.051,47.794c-37.007,8.84 -59.031,-9.139 -59.031,-9.139c3.146,-3.446 51.09,-64.065 51.09,-64.065l-2.547,-13.184c-0,-0 -3.896,-6.293 -7.791,-6.892c-3.895,-0.6 -22.623,2.547 -22.623,2.547l-38.355,54.835l-3.147,-12.884l32.512,-48.394l-20.975,-20.076l-18.579,30.115Zm29.623,-38.046l22.654,22.294l19.537,-1.918l5.274,-34.519c-0,-0 -14.383,18.578 -47.465,14.143Zm152.435,-159.647l38.834,26.729c2.157,-10.668 12.585,-6.952 12.585,-6.952l5.154,-8.151l-49.622,-33.56l-5.034,8.27c7.432,9.229 -1.917,13.664 -1.917,13.664Zm38.641,-42.369l26.752,20.435l27.712,-21.01l-9.876,-33.944l-34.328,0.959l-10.26,33.56Zm-20.424,-0.095l11.602,-3.74l11.095,-32.314l-8.794,-10.068l-15.246,21.862l1.343,24.26Zm85.244,-2.685l7.191,2.685l3.165,-22.822l-14.383,-22.437l-6.329,6.52l10.356,36.054Zm-171.851,186.912c-4.538,-37.077 -26.198,-33.704 -26.198,-33.704c13.659,12.945 11.473,20.276 11.473,20.276c-7.604,-3.359 -11.461,-2.044 -11.461,-2.044c7.372,13.822 1.974,49.032 1.974,49.032c0,0 31.643,-16.3 47.105,-13.783c0,-0 0,-4.076 -5.633,-10.188c-0,-0 6.232,-4.435 22.893,4.314c-0,0 -3.596,-21.574 -40.153,-13.903Zm140.879,-145.872l20.616,-4.795l17.547,-22.342l-9.972,-6.232l-29.246,21.67l1.055,11.699Zm9.877,-80.834l7.191,-7.479l-25.698,-9.972l-22.945,9.397l6.74,7.575l34.712,0.479Zm-279.118,158.023c13.078,2.72 37.502,-14.826 37.502,-14.826c0,0 9.469,22.774 50.221,21.575c40.752,-1.199 47.617,53.577 47.617,53.577c5.066,-0.959 51.027,-11.267 57.859,13.987c6.832,25.254 41.112,52.738 41.112,52.738c2.757,3.955 0.21,39.521 0.21,39.521l11.114,-12.088c-6.95,-69.865 -71.51,-119.585 -68.813,-121.732c2.697,-2.148 14.683,7.191 14.683,7.191l2.996,-8.84l-54.236,-39.703l-6.892,8.24c7.791,3.596 8.84,10.039 8.84,10.039c-78.958,-46.895 -137.689,-24.721 -137.689,-24.721l-4.524,15.042Zm216.379,-104.676l42.19,30.377l0.384,-13.271l-28.229,-21.172l-14.345,4.066Zm-306.861,575.919c0,0 59.163,-35.721 -49.116,-174.139c0,0 -112.135,-76.962 -79.987,-147.511c32.149,-70.548 -14.303,-161.692 -65.513,-66.088c0,0 -9.656,23.118 -34.237,-18.728c0,0 -118.312,-239.87 99.328,-204.663c-0,-0 -100.133,67.205 37.035,167.802c0,-0 46.18,36.282 26.519,93.738c0,-0 -19.66,45.693 39.779,68.097c0,-0 244.877,213.691 26.192,281.492Zm114.391,-94.979c0,-0 21.718,-86.251 -113.735,-197.154c0,0 -62.869,-42.319 -15.431,-85.184c-0,0 3.429,26.291 25.147,39.436c0,0 50.867,10.359 -17.146,-63.44c0,-0 -246.902,-187.534 -44.579,-204.68c-0,-0 64.011,3.429 4,-36.007c0,-0 -38.292,-34.292 21.147,-24.004c59.439,10.287 19.432,-20.004 23.433,-20.576c-0,0 72.013,3.43 34.292,46.295c-0,-0 -18.289,13.55 25.147,25.635c0,0 133.739,58.38 -8.001,71.525c-0,0 -157.172,-31.434 -71.442,92.589c0,-0 13.574,24.29 60.011,40.007c0,-0 60.772,12.859 53.605,78.586c-0,-0 -19.313,118.782 111.425,79.3c0,-0 57.154,-37.15 56.439,19.289c0,0 -42.865,-20.004 -68.584,42.865c0,0 -55.01,9.288 -49.294,45.723c-0,-0 -12.146,50.295 -26.434,49.795Z" 
    fill="currentColor" 
    stroke="currentColor" 
    stroke-width="4"/>
</svg>