<?xml version="1.0" encoding="UTF-8" standalone="no"?>
<!DOCTYPE svg PUBLIC "-//W3C//DTD SVG 1.1//EN" "http://www.w3.org/Graphics/SVG/1.1/DTD/svg11.dtd">
<svg width="100%" height="100%" viewBox="0 0 2000 2000" version="1.1" xmlns="http://www.w3.org/2000/svg" xmlns:xlink="http://www.w3.org/1999/xlink" xml:space="preserve" xmlns:serif="http://www.serif.com/" style="fill-rule:evenodd;clip-rule:evenodd;stroke-linejoin:round;stroke-miterlimit:2;">
    <g transform="matrix(1.74435,0,0,1.858671,-743.733697,-864.712174)">
        <path d="M936.979,1363.548L1001.116,1363.729L1065.254,1363.548C1071.111,1363.104 1079.106,1360.618 1092.814,1345.855L1157.461,1279.847L1193.528,1310.469L1111.187,1397.573C1111.187,1397.573 1100.438,1416.023 1065.934,1413.905L1001.473,1414.817L936.299,1413.905C907.543,1413.933 891.045,1397.573 891.045,1397.573L808.705,1310.469L844.771,1279.847L909.419,1345.855C923.127,1360.618 931.122,1363.104 936.979,1363.548ZM908.976,1177.668C897.581,1199.956 828.641,1274.238 828.641,1274.238C830.767,1268.39 722.313,1375.782 632.465,1362.491C542.618,1349.2 541.023,1255.631 541.023,1255.631C605.883,1328.998 655.326,1315.175 731.351,1252.973C807.375,1190.771 829.446,1119.961 829.446,1119.961C820.387,1119.09 822.129,1115.432 822.129,1115.432C823.523,1097.314 830.84,1091.217 865.856,1099.404C900.871,1107.592 928.741,1153.336 924.032,1169.605C919.322,1185.874 908.976,1177.668 908.976,1177.668ZM1090.317,1177.668C1090.317,1177.668 1079.971,1185.874 1075.261,1169.605C1070.552,1153.336 1098.421,1107.592 1133.437,1099.404C1168.453,1091.217 1175.77,1097.314 1177.164,1115.432C1177.164,1115.432 1178.906,1119.09 1169.847,1119.961C1169.847,1119.961 1191.918,1190.771 1267.942,1252.973C1343.967,1315.175 1393.41,1328.998 1458.27,1255.631C1458.27,1255.631 1456.675,1349.2 1366.828,1362.491C1276.98,1375.782 1168.525,1268.39 1170.652,1274.238C1170.652,1274.238 1101.712,1199.956 1090.317,1177.668ZM1000,824.653C1000,824.653 935.332,794.711 905.118,773.752C874.903,752.792 825.879,755.514 792.699,824.925C792.699,824.925 794.633,886.17 774.762,916.112C754.892,946.054 768.774,981.712 786.739,1003.488C804.704,1025.264 828.93,1051.579 817.77,1088.959C817.77,1088.959 808.515,1058.834 791.366,1052.573L787.828,1167.441L749.448,1216.165L749.175,1084.693C749.175,1084.693 706.667,1062.789 684.87,1015.473C663.072,968.157 696.566,964.967 675.832,880.436C655.098,795.905 655.15,795.319 655.15,795.319C655.15,795.319 642.626,763.706 677.467,792.695C712.309,821.683 731.019,835.032 749.799,863.075C749.799,863.075 747.587,790.121 752.372,759.817C757.157,729.514 768.194,585.749 1000,591.873C1236.229,586.089 1244.221,729.514 1249.006,759.817C1253.79,790.121 1251.579,863.075 1251.579,863.075C1270.359,835.032 1289.069,821.683 1323.91,792.695C1358.752,763.706 1346.227,795.319 1346.227,795.319C1346.227,795.319 1346.28,795.905 1325.546,880.436C1304.812,964.967 1338.305,968.157 1316.508,1015.473C1294.711,1062.789 1252.202,1084.693 1252.202,1084.693L1251.93,1216.165L1213.55,1167.441L1210.011,1052.573C1192.863,1058.834 1183.608,1088.959 1183.608,1088.959C1172.448,1051.579 1196.673,1025.264 1214.639,1003.488C1232.604,981.712 1246.486,946.054 1226.615,916.112C1206.745,886.17 1208.679,824.925 1208.679,824.925C1175.499,755.514 1126.474,752.792 1096.26,773.752C1066.046,794.711 1000,824.653 1000,824.653Z"/>
    </g>
</svg>
