<?xml version="1.0" encoding="UTF-8" standalone="no"?>
<!DOCTYPE svg PUBLIC "-//W3C//DTD SVG 1.1//EN" "http://www.w3.org/Graphics/SVG/1.1/DTD/svg11.dtd">
<svg width="100%" height="100%" viewBox="0 0 1080 1080" version="1.1" xmlns="http://www.w3.org/2000/svg" xmlns:xlink="http://www.w3.org/1999/xlink" xml:space="preserve" xmlns:serif="http://www.serif.com/" style="fill-rule:evenodd;clip-rule:evenodd;stroke-linecap:round;stroke-linejoin:round;stroke-miterlimit:1.5;">
    <g transform="matrix(1,0,0,1,-11.9294,-36.5462)">
        <path d="M438.798,839.931C489.693,714.548 549.08,437.421 549.08,437.421C604.286,687.041 663.142,840.014 663.142,840.014C585.109,914.998 549.08,971.611 549.08,971.611C481.351,863.222 438.798,839.931 438.798,839.931ZM550.97,898.088C550.97,898.088 585.586,852.103 616.84,824.933C616.84,824.933 569.472,691.722 550.97,610.343C550.97,610.343 507.595,769.403 487.599,825.489C487.599,825.489 528.505,861.93 550.97,898.088ZM649.994,791.87L631.949,737.187C631.949,737.187 938.177,656.404 822.74,311.928C822.74,311.928 1017.76,630.473 649.994,791.87ZM453.01,791.87C85.24,630.473 280.263,311.928 280.263,311.928C164.827,656.404 471.055,737.187 471.055,737.187L453.01,791.87ZM445.092,816.491L436.489,839.093C436.489,839.093 484.318,878.189 490.006,893.048C490.006,893.048 88.554,812.518 212.356,406.259C212.356,406.259 137.008,700.152 445.092,816.491ZM398.872,602.436C326.689,555.219 315.498,444.84 315.498,444.84C291.668,187.565 549.08,181.481 549.08,181.481C810.476,190.173 790.065,450.055 790.065,450.055C760.513,578.692 699.288,602.436 699.288,602.436C699.288,602.436 738.134,562.385 743.234,458.363C743.234,458.363 729.852,287.032 549.08,281.469C368.308,287.032 354.927,458.363 354.927,458.363C360.027,562.385 398.872,602.436 398.872,602.436ZM658.644,816.491C966.728,700.152 891.38,406.259 891.38,406.259C1015.18,812.518 616.237,892.82 616.237,892.82L667.247,839.093L658.644,816.491Z" style="fill:none;stroke:black;stroke-width:4px;"/>
    </g>
    <g id="Layer2">
    </g>
</svg>
