<?xml version="1.0" encoding="UTF-8" standalone="no"?>
<!DOCTYPE svg PUBLIC "-//W3C//DTD SVG 1.1//EN" "http://www.w3.org/Graphics/SVG/1.1/DTD/svg11.dtd">
<svg width="100%" height="100%" viewBox="0 0 1080 1080" version="1.1" xmlns="http://www.w3.org/2000/svg" xmlns:xlink="http://www.w3.org/1999/xlink" xml:space="preserve" xmlns:serif="http://www.serif.com/" style="fill-rule:evenodd;clip-rule:evenodd;stroke-linecap:round;stroke-linejoin:round;stroke-miterlimit:1.5;">
    <g id="Layer2">
    </g>
    <g transform="matrix(1,0,0,1,4.46401,-16.9496)">
        <path d="M218.039,459.312C218.039,459.312 130.524,305.825 217.146,113.715C217.146,113.715 267.155,307.191 499.34,512.782C499.34,512.782 477.878,558.934 453.883,601.95C453.883,601.95 385.505,487.636 218.039,459.312ZM428.614,630.288L392.036,664.233C325.61,624.436 326.488,575.275 326.488,575.275C383.257,629.703 428.614,630.288 428.614,630.288ZM554.076,705.834C554.076,705.834 560.865,694.363 601.13,699.045C601.13,699.045 751.304,861.261 793.735,875.673C793.735,875.673 820.071,893.743 864.33,887.524C864.33,887.524 930.536,920.369 858.844,1000.18C858.844,1000.18 867.256,907.695 762.643,987.069C762.643,987.069 709.24,1006.82 720.579,956.344C720.579,956.344 730.089,916.84 720.213,912.085L554.076,705.834ZM634.933,697.922L669.755,689.373L836.843,834.807C836.843,834.807 886.004,833.935 881.029,868.459L811.385,869.916L634.933,697.922ZM469.484,699.537L548.89,610.579L519.3,607.77L436.139,697.922L259.687,869.916L190.043,868.459C185.068,833.935 234.229,834.807 234.229,834.807L401.421,689.041L492.699,588.39C503.246,576.764 507.403,554.397 507.403,554.397C510.329,521.038 532.908,516.991 532.908,516.991C553.939,516.193 561.628,523.741 561.628,523.741C562.317,522.56 569.08,515.52 571.732,512.782C802.883,307.59 853.926,113.715 853.926,113.715C940.548,305.825 853.033,459.312 853.033,459.312C685.567,487.636 617.189,601.95 617.189,601.95L617.11,601.809C614.365,606.962 597.81,622.056 605.541,626.676C613.403,631.374 643.835,629.633 643.835,629.633L658.741,627.516C676.864,622.78 708.406,609.961 744.584,575.275C744.584,575.275 745.462,624.436 679.036,664.233C653.849,681.462 578.433,667.254 565.119,673.871C544.084,684.326 516.996,705.834 516.996,705.834L350.859,912.085C340.983,916.84 350.493,956.344 350.493,956.344C361.832,1006.82 308.429,987.069 308.429,987.069C203.816,907.695 212.228,1000.18 212.228,1000.18C140.536,920.369 206.742,887.524 206.742,887.524C251.001,893.743 277.337,875.673 277.337,875.673C318.403,861.725 460.394,709.324 469.484,699.537Z" style="fill:none;stroke:black;stroke-width:4px;"/>
    </g>
</svg>
